<?xml version="1.0" encoding="UTF-8"?>
<svg id="Camada_1" xmlns="http://www.w3.org/2000/svg" version="1.1" viewBox="0 0 5001.3 6627.87">
  <!-- Generator: Adobe Illustrator 29.1.0, SVG Export Plug-In . SVG Version: 2.1.0 Build 142)  -->
  <defs>
    <style>
      .st0 {
        fill: #b88d85;
      }

      .st1 {
        fill: #e5ddc8;
      }

      .st2 {
        fill: #595025;
      }

      .st3 {
        fill: #530f0d;
      }

      .st4 {
        fill: #a59b72;
      }

      .st5 {
        fill: #cdb392;
      }
    </style>
  </defs>
  <g>
    <rect class="st2" x="-10267.72" y="7096.39" width="5002.46" height="6627.87"/>
    <ellipse class="st1" cx="-9848.45" cy="8186.68" rx="419.27" ry="1090.29"/>
    <ellipse class="st1" cx="-9020.04" cy="8186.68" rx="419.27" ry="1090.29"/>
    <ellipse class="st1" cx="-8179.91" cy="8186.68" rx="419.27" ry="1090.29"/>
    <ellipse class="st1" cx="-7351.49" cy="8186.68" rx="419.27" ry="1090.29"/>
    <ellipse class="st1" cx="-6512.95" cy="8186.68" rx="419.27" ry="1090.29"/>
    <ellipse class="st1" cx="-5684.54" cy="8186.68" rx="419.27" ry="1090.29"/>
    <ellipse class="st1" cx="-9848.45" cy="12574.33" rx="419.27" ry="1090.29"/>
    <ellipse class="st1" cx="-9020.04" cy="12574.33" rx="419.27" ry="1090.29"/>
    <ellipse class="st1" cx="-8179.91" cy="12574.33" rx="419.27" ry="1090.29"/>
    <ellipse class="st1" cx="-7351.49" cy="12574.33" rx="419.27" ry="1090.29"/>
    <ellipse class="st1" cx="-6512.95" cy="12574.33" rx="419.27" ry="1090.29"/>
    <ellipse class="st1" cx="-5684.54" cy="12574.33" rx="419.27" ry="1090.29"/>
    <ellipse class="st1" cx="-9848.45" cy="10388.79" rx="419.27" ry="565.03"/>
    <ellipse class="st1" cx="-9020.04" cy="10388.79" rx="419.27" ry="565.03"/>
    <ellipse class="st1" cx="-8179.91" cy="10388.79" rx="419.27" ry="565.03"/>
    <ellipse class="st1" cx="-7351.49" cy="10388.79" rx="419.27" ry="565.03"/>
    <ellipse class="st1" cx="-6512.95" cy="10388.79" rx="419.27" ry="565.03"/>
    <ellipse class="st1" cx="-5684.54" cy="10388.79" rx="419.27" ry="565.03"/>
    <g>
      <path class="st4" d="M-5658.27,10728.23c36.5-171.03,176.09-344.53,361.45-351.04v-6.63c-159.55-15.08-276.71-117.09-339.22-260.61-43.12-99.02-45.69-196.45-51.83-302.76-10.27-177.87-6.56-358.01-6.63-536.86-.08-220.29-11.11-469.17,13.36-685.88,22.66-200.76,134.6-405.4,351.21-437.61l-107.51-38.27c-238.75-127.81-250.29-390.87-257.33-630.8-3.72-126.86,3.33-254.52.27-381.37h-13.26l-6.11,566.57c-14.88,197.62-90.73,378.84-280.93,462.02-18.8,8.22-47.57,5.8-57.61,25.17,208.43,35.16,324.82,251.98,337.95,447.52,14.57,216.92,6.77,447.26,6.7,666.03-.06,181.41,1.94,362.64-6.63,543.49-1.6,33.88,2.42,68.88-.07,102.66-15.95,216.36-158.95,452.24-397.6,454.08-6.59.05-13.31.32-19.88,0-217.96-10.74-346.91-209.09-376.99-408.42-7.5-49.69-4.99-99.35-7.43-148.32-8.88-178.56-6.48-358.02-6.63-536.86-.17-212.52-14.32-458.03,6.72-666.02,21.76-215.07,136.19-423.91,364.51-464.04-160.92-21.68-279.97-152.91-327.88-301.84-25.78-80.14-33.53-170.66-37-254.63-6.67-161.58,5.54-325.67.27-487.42h-19.88c-5.19,161.97,6.85,325.54.28,487.42-5.08,125.01-18.62,246.07-81.11,356.33-59.56,105.09-168.62,188.72-290.32,203.52,1.17,10.51,9.94,10.09,17.23,12.53,130.98,43.67,193.26,73.47,266.49,197.45,126.73,214.56,81.74,659.77,80.8,910.06-.67,180.76,4.8,362.88,0,543.49-7.18,270.43-89.6,535.95-397.67,556.74-4.38.29-8.85-.13-13.26,0-306.93,9.29-390.86-304.97-397.67-556.74-4.86-179.57.61-359.53,0-536.86-.75-222.44-19.85-464.07,6.72-685.89,23.19-193.63,137.78-391.06,338-437.53-147.18-34.98-256.75-159.61-303.12-300.09-30.03-90.99-32.24-200.72-35.25-296.15-4.77-151.08,4.12-303.18.27-454.28h-19.88c1.16,62.93-1.45,126.18-.27,189.17,3.44,183.81,18.11,474.46-69.19,639.45-36.17,68.36-130.97,177.35-203.94,206.99-12.87,5.23-98.1,11.2-97.83,21.54,213.5,33.36,334.95,236.43,357.12,438.29,23.07,210.01,7.49,463.31,7.48,678.5,0,181.28,8.28,371.61,0,550.11-11.88,256.04-79.67,475.41-348.26,550.07-10.61,2.95-19.57-7.18-16.29,13.27,118.32,7.43,223.12,84.84,285.16,182.15,77.52,121.59,87.09,247.12,92.65,387.87,6.93,175.43.28,360.39,0,536.86-.35,219.81,14.54,477.48-13.36,692.51-24.59,189.52-146.91,392.65-351.17,414.41,1.17,10.52,9.94,10.08,17.23,12.53,139.53,46.77,206.14,85.17,275.51,221.58,93.71,184.27,79.61,640.49,72.06,856.44-.44,12.6.66,25.08-6.9,36.12h19.88c-4.55-104.05-5.46-210.58-3.27-314.69,3.74-177.73-11.1-414.59,73.68-579.25,62.68-121.72,165.02-204.49,300.81-229.48-87.39-16.05-168.68-56.29-228.81-122.54-168.68-185.87-140-462.45-142.42-696-.16-15.45.13-30.95,0-46.4-.07-8.84.07-17.68,0-26.51-.02-2.21.02-4.42,0-6.63-.52-70.59-.12-141.5,0-212.09.29-176.84-8.24-363.3,0-536.86,12.66-266.42,85.52-537.32,391.04-570,3.76-.4,9.84-6.46,13.26-6.63,201.87-9.78,343.85,150.72,392.78,332.98,20.39,75.97,14.55,128.49,18.15,203.88.02.47,6.45,2.2,6.63,6.63.18,4.4-.16,8.85,0,13.26,6.45,182.6.32,373.27,0,556.74-.36,210.86,9.86,437.77-6.7,646.15-15.95,200.82-132.19,418.13-344.62,457.46l114.74,50.93c214.68,132.04,223.83,378.47,230.22,604.89,4.46,157.76-3.89,316.4-.28,474.17h13.26c4.31-166.53-5.66-334.18-.27-500.68,2.63-81.32,6.34-183.51,22.13-262.87,34.86-175.29,162.66-343.02,349.37-366.5-206.19-32.92-327.58-229.65-351.24-424.29-25.98-213.82-13.08-461.58-13.36-679.25-.23-179.73-6.63-368.03,6.63-543.49,1.07-14.09,6.63-39.01,6.63-43.08v-99.42c0-192.04,160.22-393.76,351.28-420.87,9.67-1.37,15.59-6.16,33.14-6.63,254.51-6.85,394.56,232.75,410.86,460.71,2.72,38-1.6,77.73.07,115.92,7.71,176.53,6.56,353.15,6.63,530.23.08,205.26,10.88,430.57-6.69,632.9-19.74,227.34-129.75,447.61-377.76,477.34l108.59,37.18c227.58,117.65,255.08,346.71,262.88,578.86,5.73,170.88-4.84,343.02-.28,513.94h13.26c3-140.14-3.91-280.99-.27-421.15,3.29-126.96,3.51-287.47,43.09-407.6,50.29-152.67,171.88-276.29,335.04-301.3-203.27-37.42-324.54-224.1-350.52-418.38-28.52-213.3-14.03-473.26-14.08-691.79-.04-179.24-1.56-358.09,6.63-536.86,3.45-75.33.22-143.45,16.34-218.96Z"/>
      <path class="st4" d="M-9822.81,10805.53c28.12-205.69,150.04-384.72,363.75-425.03-189.08-31.45-311.51-161.7-358.82-343.8-21.67-83.4-15.58-139.89-19.03-222.88-7.29-175.31-6.5-353.15-6.63-530.23-.15-215.8-13.59-460.96,6.7-672.66,20.24-211.21,136.17-425.56,364.53-457.39-108.72-22.64-199.57-84.8-261.29-176.21-63.66-94.28-90.48-208.35-96.61-320.95-9.99-183.57,7.31-375.58-.07-559.99h-19.88c-4.32,153.25,5.68,307.7.28,460.91-5.53,156.64-16.41,313.55-114.05,442.67-62.22,82.28-149.69,132.53-250.8,153.63l70.35,22.18c188.17,86.27,265.62,275.2,280.9,474.91,15.88,207.58,1.24,419.53.06,626.27-1,175.65,5.85,355.17,0,530.23-2.4,71.8-5.81,150.34-21.85,220.07-40.8,177.44-169.29,327.56-356.01,353.24,188.27,12.18,327.16,171.1,369.4,346.48,19.28,80.06,11.94,146.92,15.08,226.83,7.12,180.89,6.59,361.99,6.63,543.49.05,212.22,12.55,450.02-7.48,658.62-19.15,199.46-130.58,407.96-343.84,444.98l112.83,46.22c178.02,105.44,229.9,294.9,238.77,490.3,8.76,193.14-7.1,393.05-.28,586.84h19.88c7.05-166.18-8.06-334.73-3.14-500.56,5.76-194.25,25.57-399.61,185.25-533.54,63.58-53.33,98.5-56.12,171.85-80,7.36-2.39,16.02-2.17,17.19-12.57-190.12-9.74-325.6-202.08-356.11-376.34-35.02-200.05-20.42-445.56-21.68-651.05-.01-2.21.01-4.42,0-6.63-.13-22.04.05-44.24,0-66.28-.37-181.62-9.4-370.41,0-550.11,2.19-41.87,8.24-98.75,14.1-141.65Z"/>
      <path class="st4" d="M-8995.09,12136.8c-19.1-206.18-7.11-443.24-6.72-652.76.34-177.01-2.11-353.65,6.63-530.23,6.35-128.26,4.47-236.45,67.42-353.45,51.99-96.61,168.93-209.1,283.85-216.55v-13.26c-109.99-.45-228.71-92.88-283.82-183.45-70.76-116.3-78.88-241.07-87.34-373.29-11.68-182.6-.61-363.07,0-543.49.12-35.46-.32-70.51,0-106.05.02-2.21-.02-4.42,0-6.63,2.1-213.19-30.55-534.79,47.97-730.81,58.05-144.93,169.28-243.14,323.26-273.32-114.25-25.07-195.77-71.12-263.96-166.92-132.84-186.62-108.32-432.14-106.97-648.07.5-80.7-.99-161.53-.3-242.16h-13.26c-3.46,140.09,4.53,281.06.28,421.14-2.6,85.3-5.24,192.1-23.4,274.86-38.01,173.21-165.71,334.01-348.1,361.15,214.51,40.86,334.71,232.35,357.12,438.3,22.92,210.75,7.23,462.72,7.48,678.5.21,179.89,5.36,364.1,0,543.49-6.44,215.71-85.34,547.16-357.91,556.74v13.26c291.87,15.93,365.87,334.26,371.16,570,3.96,176.36-.84,353.77,0,530.23,1.01,211.94,18.31,433.17-.07,646.15-16.34,189.37-97.46,378.23-283.21,452.49-24.66,9.86-58.51,10.17-74.63,28.04,22.42-1.26,43.36,4.74,64.14,12.12,49.54,17.59,123.74,73.69,157.97,113.79,121.87,142.79,124.05,301.52,129.44,480.32,5.09,168.76-4.36,338.54-.28,507.31h13.26c-.44-213.88-.42-427.37,10.78-640.69,3.78-71.89,10.3-120.84,35.5-191.23,55.22-154.25,173.2-267.22,338.21-291.5-235.68-36.96-344.09-243.55-364.51-464.04Z"/>
      <path class="st4" d="M-8166.61,10811.38c24.95-205.1,149.61-406.34,371.09-427.63-1.26-9.56-9.09-11.08-17.05-12.72-299.27-61.53-353.33-285.86-367.37-557.22-9.35-180.65-6.69-362.18-6.63-543.49.05-153.19-4.37-307.79-.27-460.91,6.56-245.41,16.75-498.05,260.88-627.26l103.97-35.18c-153.52-14.3-276.56-144.52-325.04-284.83-41.92-121.33-42.94-294.72-46.43-424.15-3.06-113.67,2.84-227.96.27-341.61h-13.26c-3,133.5,3.92,267.74.28,401.26-6.33,232.2-13.46,472.15-234.44,607.3l-117.14,48.52c226.14,39.06,339.28,265.47,351.59,477,11.99,206.18,6.15,425.94,6.35,633.24.18,181.35,2.17,362.56-6.63,543.49-3.9,80.25-1.34,153.64-21.84,233.33-38.51,149.75-176.44,324.15-342.7,330.03v13.26c295.49,19.21,368.7,330.92,377.79,570,6.61,173.7-.08,355.57,0,530.23.09,193.47,1.11,387.05-6.9,579.66-3.57,85.86,2.47,151.17-22.32,228.79-46.99,147.16-170.91,296.61-335.31,305.1,10.39,18.87,40.32,15.64,59.5,23.28,239.68,95.48,283.59,332.13,292.05,562.95,6.58,179.62-5.47,360.76-.28,540.45h13.26c4.29-157.68-5.64-316.52-.27-474.17,3.49-102.41,9.58-241.1,39.83-337.96,47.79-153.05,172.89-291.23,338.3-311.29-221.38-52.26-331.19-241.18-351.27-457.39-20.03-215.64-12.16-436.04-13.33-652.78-.79-147.17-18.85-411.31,6.63-536.86,7.04-34.69,1.74-101.63,6.7-142.43Z"/>
    </g>
  </g>
  <g>
    <rect class="st0" x="-5133.86" y="7096.39" width="5002.46" height="6627.87"/>
    <ellipse class="st1" cx="-4714.59" cy="8186.68" rx="419.27" ry="1090.29"/>
    <ellipse class="st1" cx="-3886.18" cy="8186.68" rx="419.27" ry="1090.29"/>
    <ellipse class="st1" cx="-3046.05" cy="8186.68" rx="419.27" ry="1090.29"/>
    <ellipse class="st1" cx="-2217.63" cy="8186.68" rx="419.27" ry="1090.29"/>
    <ellipse class="st1" cx="-1379.09" cy="8186.68" rx="419.27" ry="1090.29"/>
    <ellipse class="st1" cx="-550.68" cy="8186.68" rx="419.27" ry="1090.29"/>
    <ellipse class="st1" cx="-4714.59" cy="12574.33" rx="419.27" ry="1090.29"/>
    <ellipse class="st1" cx="-3886.18" cy="12574.33" rx="419.27" ry="1090.29"/>
    <ellipse class="st1" cx="-3046.05" cy="12574.33" rx="419.27" ry="1090.29"/>
    <ellipse class="st1" cx="-2217.63" cy="12574.33" rx="419.27" ry="1090.29"/>
    <ellipse class="st1" cx="-1379.09" cy="12574.33" rx="419.27" ry="1090.29"/>
    <ellipse class="st1" cx="-550.68" cy="12574.33" rx="419.27" ry="1090.29"/>
    <ellipse class="st1" cx="-4714.59" cy="10388.79" rx="419.27" ry="565.03"/>
    <ellipse class="st1" cx="-3886.18" cy="10388.79" rx="419.27" ry="565.03"/>
    <ellipse class="st1" cx="-3046.05" cy="10388.79" rx="419.27" ry="565.03"/>
    <ellipse class="st1" cx="-2217.63" cy="10388.79" rx="419.27" ry="565.03"/>
    <ellipse class="st1" cx="-1379.09" cy="10388.79" rx="419.27" ry="565.03"/>
    <ellipse class="st1" cx="-550.68" cy="10388.79" rx="419.27" ry="565.03"/>
    <g>
      <path class="st2" d="M-524.41,10728.23c36.5-171.03,176.09-344.53,361.45-351.04v-6.63c-159.55-15.08-276.71-117.09-339.22-260.61-43.12-99.02-45.69-196.45-51.83-302.76-10.27-177.87-6.56-358.01-6.63-536.86-.08-220.29-11.11-469.17,13.36-685.88,22.66-200.76,134.6-405.4,351.21-437.61l-107.51-38.27c-238.75-127.81-250.29-390.87-257.33-630.8-3.72-126.86,3.33-254.52.27-381.37h-13.26l-6.11,566.57c-14.88,197.62-90.73,378.84-280.93,462.02-18.8,8.22-47.57,5.8-57.61,25.17,208.43,35.16,324.82,251.98,337.95,447.52,14.57,216.92,6.77,447.26,6.7,666.03-.06,181.41,1.94,362.64-6.63,543.49-1.6,33.88,2.42,68.88-.07,102.66-15.95,216.36-158.95,452.24-397.6,454.08-6.59.05-13.31.32-19.88,0-217.96-10.74-346.91-209.09-376.99-408.42-7.5-49.69-4.99-99.35-7.43-148.32-8.88-178.56-6.48-358.02-6.63-536.86-.17-212.52-14.32-458.03,6.72-666.02,21.76-215.07,136.19-423.91,364.51-464.04-160.92-21.68-279.97-152.91-327.88-301.84-25.78-80.14-33.53-170.66-37-254.63-6.67-161.58,5.54-325.67.27-487.42h-19.88c-5.19,161.97,6.85,325.54.28,487.42-5.08,125.01-18.62,246.07-81.11,356.33-59.56,105.09-168.62,188.72-290.32,203.52,1.17,10.51,9.94,10.09,17.23,12.53,130.98,43.67,193.26,73.47,266.49,197.45,126.73,214.56,81.74,659.77,80.8,910.06-.67,180.76,4.8,362.88,0,543.49-7.18,270.43-89.6,535.95-397.67,556.74-4.38.29-8.85-.13-13.26,0-306.93,9.29-390.86-304.97-397.67-556.74-4.86-179.57.61-359.53,0-536.86-.75-222.44-19.85-464.07,6.72-685.89,23.19-193.63,137.78-391.06,338-437.53-147.18-34.98-256.75-159.61-303.12-300.09-30.03-90.99-32.24-200.72-35.25-296.15-4.77-151.08,4.12-303.18.27-454.28h-19.88c1.16,62.93-1.45,126.18-.27,189.17,3.44,183.81,18.11,474.46-69.19,639.45-36.17,68.36-130.97,177.35-203.94,206.99-12.87,5.23-98.1,11.2-97.83,21.54,213.5,33.36,334.95,236.43,357.12,438.29,23.07,210.01,7.49,463.31,7.48,678.5,0,181.28,8.28,371.61,0,550.11-11.88,256.04-79.67,475.41-348.26,550.07-10.61,2.95-19.57-7.18-16.29,13.27,118.32,7.43,223.12,84.84,285.16,182.15,77.52,121.59,87.09,247.12,92.65,387.87,6.93,175.43.28,360.39,0,536.86-.35,219.81,14.54,477.48-13.36,692.51-24.59,189.52-146.91,392.65-351.17,414.41,1.17,10.52,9.94,10.08,17.23,12.53,139.53,46.77,206.14,85.17,275.51,221.58,93.71,184.27,79.61,640.49,72.06,856.44-.44,12.6.66,25.08-6.9,36.12h19.88c-4.55-104.05-5.46-210.58-3.27-314.69,3.74-177.73-11.1-414.59,73.68-579.25,62.68-121.72,165.02-204.49,300.81-229.48-87.39-16.05-168.68-56.29-228.81-122.54-168.68-185.87-140-462.45-142.42-696-.16-15.45.13-30.95,0-46.4-.07-8.84.07-17.68,0-26.51-.02-2.21.02-4.42,0-6.63-.52-70.59-.12-141.5,0-212.09.29-176.84-8.24-363.3,0-536.86,12.66-266.42,85.52-537.32,391.04-570,3.76-.4,9.84-6.46,13.26-6.63,201.87-9.78,343.85,150.72,392.78,332.98,20.39,75.97,14.55,128.49,18.15,203.88.02.47,6.45,2.2,6.63,6.63.18,4.4-.16,8.85,0,13.26,6.45,182.6.32,373.27,0,556.74-.36,210.86,9.86,437.77-6.7,646.15-15.95,200.82-132.19,418.13-344.62,457.46l114.74,50.93c214.68,132.04,223.83,378.47,230.22,604.89,4.46,157.76-3.89,316.4-.28,474.17h13.26c4.31-166.53-5.66-334.18-.27-500.68,2.63-81.32,6.34-183.51,22.13-262.87,34.86-175.29,162.66-343.02,349.37-366.5-206.19-32.92-327.58-229.65-351.24-424.29-25.98-213.82-13.08-461.58-13.36-679.25-.23-179.73-6.63-368.03,6.63-543.49,1.07-14.09,6.63-39.01,6.63-43.08v-99.42c0-192.04,160.22-393.76,351.28-420.87,9.67-1.37,15.59-6.16,33.14-6.63,254.51-6.85,394.56,232.75,410.86,460.71,2.72,38-1.6,77.73.07,115.92,7.71,176.53,6.56,353.15,6.63,530.23.08,205.26,10.88,430.57-6.69,632.9-19.74,227.34-129.75,447.61-377.76,477.34l108.59,37.18c227.58,117.65,255.08,346.71,262.88,578.86,5.73,170.88-4.84,343.02-.28,513.94h13.26c3-140.14-3.91-280.99-.27-421.15,3.29-126.96,3.51-287.47,43.09-407.6,50.29-152.67,171.88-276.29,335.04-301.3-203.27-37.42-324.54-224.1-350.52-418.38-28.52-213.3-14.03-473.26-14.08-691.79-.04-179.24-1.56-358.09,6.63-536.86,3.45-75.33.22-143.45,16.34-218.96Z"/>
      <path class="st2" d="M-4688.95,10805.53c28.12-205.69,150.04-384.72,363.75-425.03-189.08-31.45-311.51-161.7-358.82-343.8-21.67-83.4-15.58-139.89-19.03-222.88-7.29-175.31-6.5-353.15-6.63-530.23-.15-215.8-13.59-460.96,6.7-672.66,20.24-211.21,136.17-425.56,364.53-457.39-108.72-22.64-199.57-84.8-261.29-176.21-63.66-94.28-90.48-208.35-96.61-320.95-9.99-183.57,7.31-375.58-.07-559.99h-19.88c-4.32,153.25,5.68,307.7.28,460.91-5.53,156.64-16.41,313.55-114.05,442.67-62.22,82.28-149.69,132.53-250.8,153.63l70.35,22.18c188.17,86.27,265.62,275.2,280.9,474.91,15.88,207.58,1.24,419.53.06,626.27-1,175.65,5.85,355.17,0,530.23-2.4,71.8-5.81,150.34-21.85,220.07-40.8,177.44-169.29,327.56-356.01,353.24,188.27,12.18,327.16,171.1,369.4,346.48,19.28,80.06,11.94,146.92,15.08,226.83,7.12,180.89,6.59,361.99,6.63,543.49.05,212.22,12.55,450.02-7.48,658.62-19.15,199.46-130.58,407.96-343.84,444.98l112.83,46.22c178.02,105.44,229.9,294.9,238.77,490.3,8.76,193.14-7.1,393.05-.28,586.84h19.88c7.05-166.18-8.06-334.73-3.14-500.56,5.76-194.25,25.57-399.61,185.25-533.54,63.58-53.33,98.5-56.12,171.85-80,7.36-2.39,16.02-2.17,17.19-12.57-190.12-9.74-325.6-202.08-356.11-376.34-35.02-200.05-20.42-445.56-21.68-651.05-.01-2.21.01-4.42,0-6.63-.13-22.04.05-44.24,0-66.28-.37-181.62-9.4-370.41,0-550.11,2.19-41.87,8.24-98.75,14.1-141.65Z"/>
      <path class="st2" d="M-3861.22,12136.8c-19.1-206.18-7.11-443.24-6.72-652.76.34-177.01-2.11-353.65,6.63-530.23,6.35-128.26,4.47-236.45,67.42-353.45,51.99-96.61,168.93-209.1,283.85-216.55v-13.26c-109.99-.45-228.71-92.88-283.82-183.45-70.76-116.3-78.88-241.07-87.34-373.29-11.68-182.6-.61-363.07,0-543.49.12-35.46-.32-70.51,0-106.05.02-2.21-.02-4.42,0-6.63,2.1-213.19-30.55-534.79,47.97-730.81,58.05-144.93,169.28-243.14,323.26-273.32-114.25-25.07-195.77-71.12-263.96-166.92-132.84-186.62-108.32-432.14-106.97-648.07.5-80.7-.99-161.53-.3-242.16h-13.26c-3.46,140.09,4.53,281.06.28,421.14-2.6,85.3-5.24,192.1-23.4,274.86-38.01,173.21-165.71,334.01-348.1,361.15,214.51,40.86,334.71,232.35,357.12,438.3,22.92,210.75,7.23,462.72,7.48,678.5.21,179.89,5.36,364.1,0,543.49-6.44,215.71-85.34,547.16-357.91,556.74v13.26c291.87,15.93,365.87,334.26,371.16,570,3.96,176.36-.84,353.77,0,530.23,1.01,211.94,18.31,433.17-.07,646.15-16.34,189.37-97.46,378.23-283.21,452.49-24.66,9.86-58.51,10.17-74.63,28.04,22.42-1.26,43.36,4.74,64.14,12.12,49.54,17.59,123.74,73.69,157.97,113.79,121.87,142.79,124.05,301.52,129.44,480.32,5.09,168.76-4.36,338.54-.28,507.31h13.26c-.44-213.88-.42-427.37,10.78-640.69,3.78-71.89,10.3-120.84,35.5-191.23,55.22-154.25,173.2-267.22,338.21-291.5-235.68-36.96-344.09-243.55-364.51-464.04Z"/>
      <path class="st2" d="M-3032.75,10811.38c24.95-205.1,149.61-406.34,371.09-427.63-1.26-9.56-9.09-11.08-17.05-12.72-299.27-61.53-353.33-285.86-367.37-557.22-9.35-180.65-6.69-362.18-6.63-543.49.05-153.19-4.37-307.79-.27-460.91,6.56-245.41,16.75-498.05,260.88-627.26l103.97-35.18c-153.52-14.3-276.56-144.52-325.04-284.83-41.92-121.33-42.94-294.72-46.43-424.15-3.06-113.67,2.84-227.96.27-341.61h-13.26c-3,133.5,3.92,267.74.28,401.26-6.33,232.2-13.46,472.15-234.44,607.3l-117.14,48.52c226.14,39.06,339.28,265.47,351.59,477,11.99,206.18,6.15,425.94,6.35,633.24.18,181.35,2.17,362.56-6.63,543.49-3.9,80.25-1.34,153.64-21.84,233.33-38.51,149.75-176.44,324.15-342.7,330.03v13.26c295.49,19.21,368.7,330.92,377.79,570,6.61,173.7-.08,355.57,0,530.23.09,193.47,1.11,387.05-6.9,579.66-3.57,85.86,2.47,151.17-22.32,228.79-46.99,147.16-170.91,296.61-335.31,305.1,10.39,18.87,40.32,15.64,59.5,23.28,239.68,95.48,283.59,332.13,292.05,562.95,6.58,179.62-5.47,360.76-.28,540.45h13.26c4.29-157.68-5.64-316.52-.27-474.17,3.49-102.41,9.58-241.1,39.83-337.96,47.79-153.05,172.89-291.23,338.3-311.29-221.38-52.26-331.19-241.18-351.27-457.39-20.03-215.64-12.16-436.04-13.33-652.78-.79-147.17-18.85-411.31,6.63-536.86,7.04-34.69,1.74-101.63,6.7-142.43Z"/>
    </g>
  </g>
  <g>
    <rect class="st5" x="0" y="7096.39" width="5002.46" height="6627.87"/>
    <g>
      <ellipse class="st1" cx="419.27" cy="8186.68" rx="419.27" ry="1090.29"/>
      <ellipse class="st1" cx="1247.68" cy="8186.68" rx="419.27" ry="1090.29"/>
      <ellipse class="st1" cx="2087.82" cy="8186.68" rx="419.27" ry="1090.29"/>
      <ellipse class="st1" cx="2916.23" cy="8186.68" rx="419.27" ry="1090.29"/>
      <ellipse class="st1" cx="3754.77" cy="8186.68" rx="419.27" ry="1090.29"/>
      <ellipse class="st1" cx="4583.19" cy="8186.68" rx="419.27" ry="1090.29"/>
      <ellipse class="st1" cx="419.27" cy="12574.33" rx="419.27" ry="1090.29"/>
      <ellipse class="st1" cx="1247.68" cy="12574.33" rx="419.27" ry="1090.29"/>
      <ellipse class="st1" cx="2087.82" cy="12574.33" rx="419.27" ry="1090.29"/>
      <ellipse class="st1" cx="2916.23" cy="12574.33" rx="419.27" ry="1090.29"/>
      <ellipse class="st1" cx="3754.77" cy="12574.33" rx="419.27" ry="1090.29"/>
      <ellipse class="st1" cx="4583.19" cy="12574.33" rx="419.27" ry="1090.29"/>
      <ellipse class="st1" cx="419.27" cy="10388.79" rx="419.27" ry="565.03"/>
      <ellipse class="st1" cx="1247.68" cy="10388.79" rx="419.27" ry="565.03"/>
      <ellipse class="st1" cx="2087.82" cy="10388.79" rx="419.27" ry="565.03"/>
      <ellipse class="st1" cx="2916.23" cy="10388.79" rx="419.27" ry="565.03"/>
      <ellipse class="st1" cx="3754.77" cy="10388.79" rx="419.27" ry="565.03"/>
      <ellipse class="st1" cx="4583.19" cy="10388.79" rx="419.27" ry="565.03"/>
    </g>
    <g>
      <path class="st2" d="M4609.45,10728.23c36.5-171.03,176.09-344.53,361.45-351.04v-6.63c-159.55-15.08-276.71-117.09-339.22-260.61-43.12-99.02-45.69-196.45-51.83-302.76-10.27-177.87-6.56-358.01-6.63-536.86-.08-220.29-11.11-469.17,13.36-685.88,22.66-200.76,134.6-405.4,351.21-437.61l-107.51-38.27c-238.75-127.81-250.29-390.87-257.33-630.8-3.72-126.86,3.33-254.52.27-381.37h-13.26l-6.11,566.57c-14.88,197.62-90.73,378.84-280.93,462.02-18.8,8.22-47.57,5.8-57.61,25.17,208.43,35.16,324.82,251.98,337.95,447.52,14.57,216.92,6.77,447.26,6.7,666.03-.06,181.41,1.94,362.64-6.63,543.49-1.6,33.88,2.42,68.88-.07,102.66-15.95,216.36-158.95,452.24-397.6,454.08-6.59.05-13.31.32-19.88,0-217.96-10.74-346.91-209.09-376.99-408.42-7.5-49.69-4.99-99.35-7.43-148.32-8.88-178.56-6.48-358.02-6.63-536.86-.17-212.52-14.32-458.03,6.72-666.02,21.76-215.07,136.19-423.91,364.51-464.04-160.92-21.68-279.97-152.91-327.88-301.84-25.78-80.14-33.53-170.66-37-254.63-6.67-161.58,5.54-325.67.27-487.42h-19.88c-5.19,161.97,6.85,325.54.28,487.42-5.08,125.01-18.62,246.07-81.11,356.33-59.56,105.09-168.62,188.72-290.32,203.52,1.17,10.51,9.94,10.09,17.23,12.53,130.98,43.67,193.26,73.47,266.49,197.45,126.73,214.56,81.74,659.77,80.8,910.06-.67,180.76,4.8,362.88,0,543.49-7.18,270.43-89.6,535.95-397.67,556.74-4.38.29-8.85-.13-13.26,0-306.93,9.29-390.86-304.97-397.67-556.74-4.86-179.57.61-359.53,0-536.86-.75-222.44-19.85-464.07,6.72-685.89,23.19-193.63,137.78-391.06,338-437.53-147.18-34.98-256.75-159.61-303.12-300.09-30.03-90.99-32.24-200.72-35.25-296.15-4.77-151.08,4.12-303.18.27-454.28h-19.88c1.16,62.93-1.45,126.18-.27,189.17,3.44,183.81,18.11,474.46-69.19,639.45-36.17,68.36-130.97,177.35-203.94,206.99-12.87,5.23-98.1,11.2-97.83,21.54,213.5,33.36,334.95,236.43,357.12,438.29,23.07,210.01,7.49,463.31,7.48,678.5,0,181.28,8.28,371.61,0,550.11-11.88,256.04-79.67,475.41-348.26,550.07-10.61,2.95-19.57-7.18-16.29,13.27,118.32,7.43,223.12,84.84,285.16,182.15,77.52,121.59,87.09,247.12,92.65,387.87,6.93,175.43.28,360.39,0,536.86-.35,219.81,14.54,477.48-13.36,692.51-24.59,189.52-146.91,392.65-351.17,414.41,1.17,10.52,9.94,10.08,17.23,12.53,139.53,46.77,206.14,85.17,275.51,221.58,93.71,184.27,79.61,640.49,72.06,856.44-.44,12.6.66,25.08-6.9,36.12h19.88c-4.55-104.05-5.46-210.58-3.27-314.69,3.74-177.73-11.1-414.59,73.68-579.25,62.68-121.72,165.02-204.49,300.81-229.48-87.39-16.05-168.68-56.29-228.81-122.54-168.68-185.87-140-462.45-142.42-696-.16-15.45.13-30.95,0-46.4-.07-8.84.07-17.68,0-26.51-.02-2.21.02-4.42,0-6.63-.52-70.59-.12-141.5,0-212.09.29-176.84-8.24-363.3,0-536.86,12.66-266.42,85.52-537.32,391.04-570,3.76-.4,9.84-6.46,13.26-6.63,201.87-9.78,343.85,150.72,392.78,332.98,20.39,75.97,14.55,128.49,18.15,203.88.02.47,6.45,2.2,6.63,6.63.18,4.4-.16,8.85,0,13.26,6.45,182.6.32,373.27,0,556.74-.36,210.86,9.86,437.77-6.7,646.15-15.95,200.82-132.19,418.13-344.62,457.46l114.74,50.93c214.68,132.04,223.83,378.47,230.22,604.89,4.46,157.76-3.89,316.4-.28,474.17h13.26c4.31-166.53-5.66-334.18-.27-500.68,2.63-81.32,6.34-183.51,22.13-262.87,34.86-175.29,162.66-343.02,349.37-366.5-206.19-32.92-327.58-229.65-351.24-424.29-25.98-213.82-13.08-461.58-13.36-679.25-.23-179.73-6.63-368.03,6.63-543.49,1.07-14.09,6.63-39.01,6.63-43.08v-99.42c0-192.04,160.22-393.76,351.28-420.87,9.67-1.37,15.59-6.16,33.14-6.63,254.51-6.85,394.56,232.75,410.86,460.71,2.72,38-1.6,77.73.07,115.92,7.71,176.53,6.56,353.15,6.63,530.23.08,205.26,10.88,430.57-6.69,632.9-19.74,227.34-129.75,447.61-377.76,477.34l108.59,37.18c227.58,117.65,255.08,346.71,262.88,578.86,5.73,170.88-4.84,343.02-.28,513.94h13.26c3-140.14-3.91-280.99-.27-421.15,3.29-126.96,3.51-287.47,43.09-407.6,50.29-152.67,171.88-276.29,335.04-301.3-203.27-37.42-324.54-224.1-350.52-418.38-28.52-213.3-14.03-473.26-14.08-691.79-.04-179.24-1.56-358.09,6.63-536.86,3.45-75.33.22-143.45,16.34-218.96Z"/>
      <path class="st2" d="M444.91,10805.53c28.12-205.69,150.04-384.72,363.75-425.03-189.08-31.45-311.51-161.7-358.82-343.8-21.67-83.4-15.58-139.89-19.03-222.88-7.29-175.31-6.5-353.15-6.63-530.23-.15-215.8-13.59-460.96,6.7-672.66,20.24-211.21,136.17-425.56,364.53-457.39-108.72-22.64-199.57-84.8-261.29-176.21-63.66-94.28-90.48-208.35-96.61-320.95-9.99-183.57,7.31-375.58-.07-559.99h-19.88c-4.32,153.25,5.68,307.7.28,460.91-5.53,156.64-16.41,313.55-114.05,442.67-62.22,82.28-149.69,132.53-250.8,153.63l70.35,22.18c188.17,86.27,265.62,275.2,280.9,474.91,15.88,207.58,1.24,419.53.06,626.27-1,175.65,5.85,355.17,0,530.23-2.4,71.8-5.81,150.34-21.85,220.07-40.8,177.44-169.29,327.56-356.01,353.24,188.27,12.18,327.16,171.1,369.4,346.48,19.28,80.06,11.94,146.92,15.08,226.83,7.12,180.89,6.59,361.99,6.63,543.49.05,212.22,12.55,450.02-7.48,658.62-19.15,199.46-130.58,407.96-343.84,444.98l112.83,46.22c178.02,105.44,229.9,294.9,238.77,490.3,8.76,193.14-7.1,393.05-.28,586.84h19.88c7.05-166.18-8.06-334.73-3.14-500.56,5.76-194.25,25.57-399.61,185.25-533.54,63.58-53.33,98.5-56.12,171.85-80,7.36-2.39,16.02-2.17,17.19-12.57-190.12-9.74-325.6-202.08-356.11-376.34-35.02-200.05-20.42-445.56-21.68-651.05-.01-2.21.01-4.42,0-6.63-.13-22.04.05-44.24,0-66.28-.37-181.62-9.4-370.41,0-550.11,2.19-41.87,8.24-98.75,14.1-141.65Z"/>
      <path class="st2" d="M1272.64,12136.8c-19.1-206.18-7.11-443.24-6.72-652.76.34-177.01-2.11-353.65,6.63-530.23,6.35-128.26,4.47-236.45,67.42-353.45,51.99-96.61,168.93-209.1,283.85-216.55v-13.26c-109.99-.45-228.71-92.88-283.82-183.45-70.76-116.3-78.88-241.07-87.34-373.29-11.68-182.6-.61-363.07,0-543.49.12-35.46-.32-70.51,0-106.05.02-2.21-.02-4.42,0-6.63,2.1-213.19-30.55-534.79,47.97-730.81,58.05-144.93,169.28-243.14,323.26-273.32-114.25-25.07-195.77-71.12-263.96-166.92-132.84-186.62-108.32-432.14-106.97-648.07.5-80.7-.99-161.53-.3-242.16h-13.26c-3.46,140.09,4.53,281.06.28,421.14-2.6,85.3-5.24,192.1-23.4,274.86-38.01,173.21-165.71,334.01-348.1,361.15,214.51,40.86,334.71,232.35,357.12,438.3,22.92,210.75,7.23,462.72,7.48,678.5.21,179.89,5.36,364.1,0,543.49-6.44,215.71-85.34,547.16-357.91,556.74v13.26c291.87,15.93,365.87,334.26,371.16,570,3.96,176.36-.84,353.77,0,530.23,1.01,211.94,18.31,433.17-.07,646.15-16.34,189.37-97.46,378.23-283.21,452.49-24.66,9.86-58.51,10.17-74.63,28.04,22.42-1.26,43.36,4.74,64.14,12.12,49.54,17.59,123.74,73.69,157.97,113.79,121.87,142.79,124.05,301.52,129.44,480.32,5.09,168.76-4.36,338.54-.28,507.31h13.26c-.44-213.88-.42-427.37,10.78-640.69,3.78-71.89,10.3-120.84,35.5-191.23,55.22-154.25,173.2-267.22,338.21-291.5-235.68-36.96-344.09-243.55-364.51-464.04Z"/>
      <path class="st2" d="M2101.11,10811.38c24.95-205.1,149.61-406.34,371.09-427.63-1.26-9.56-9.09-11.08-17.05-12.72-299.27-61.53-353.33-285.86-367.37-557.22-9.35-180.65-6.69-362.18-6.63-543.49.05-153.19-4.37-307.79-.27-460.91,6.56-245.41,16.75-498.05,260.88-627.26l103.97-35.18c-153.52-14.3-276.56-144.52-325.04-284.83-41.92-121.33-42.94-294.72-46.43-424.15-3.06-113.67,2.84-227.96.27-341.61h-13.26c-3,133.5,3.92,267.74.28,401.26-6.33,232.2-13.46,472.15-234.44,607.3l-117.14,48.52c226.14,39.06,339.28,265.47,351.59,477,11.99,206.18,6.15,425.94,6.35,633.24.18,181.35,2.17,362.56-6.63,543.49-3.9,80.25-1.34,153.64-21.84,233.33-38.51,149.75-176.44,324.15-342.7,330.03v13.26c295.49,19.21,368.7,330.92,377.79,570,6.61,173.7-.08,355.57,0,530.23.09,193.47,1.11,387.05-6.9,579.66-3.57,85.86,2.47,151.17-22.32,228.79-46.99,147.16-170.91,296.61-335.31,305.1,10.39,18.87,40.32,15.64,59.5,23.28,239.68,95.48,283.59,332.13,292.05,562.95,6.58,179.62-5.47,360.76-.28,540.45h13.26c4.29-157.68-5.64-316.52-.27-474.17,3.49-102.41,9.58-241.1,39.83-337.96,47.79-153.05,172.89-291.23,338.3-311.29-221.38-52.26-331.19-241.18-351.27-457.39-20.03-215.64-12.16-436.04-13.33-652.78-.79-147.17-18.85-411.31,6.63-536.86,7.04-34.69,1.74-101.63,6.7-142.43Z"/>
    </g>
  </g>
  <g>
    <rect class="st0" x="-10267.72" y="0" width="5002.46" height="6627.87"/>
    <ellipse class="st1" cx="-9848.45" cy="1090.29" rx="419.27" ry="1090.29"/>
    <ellipse class="st1" cx="-9020.04" cy="1090.29" rx="419.27" ry="1090.29"/>
    <ellipse class="st1" cx="-8179.91" cy="1090.29" rx="419.27" ry="1090.29"/>
    <ellipse class="st1" cx="-7351.49" cy="1090.29" rx="419.27" ry="1090.29"/>
    <ellipse class="st1" cx="-6512.95" cy="1090.29" rx="419.27" ry="1090.29"/>
    <ellipse class="st1" cx="-5684.54" cy="1090.29" rx="419.27" ry="1090.29"/>
    <ellipse class="st1" cx="-9848.45" cy="5477.94" rx="419.27" ry="1090.29"/>
    <ellipse class="st1" cx="-9020.04" cy="5477.94" rx="419.27" ry="1090.29"/>
    <ellipse class="st1" cx="-8179.91" cy="5477.94" rx="419.27" ry="1090.29"/>
    <ellipse class="st1" cx="-7351.49" cy="5477.94" rx="419.27" ry="1090.29"/>
    <ellipse class="st1" cx="-6512.95" cy="5477.94" rx="419.27" ry="1090.29"/>
    <ellipse class="st1" cx="-5684.54" cy="5477.94" rx="419.27" ry="1090.29"/>
    <ellipse class="st1" cx="-9848.45" cy="3292.4" rx="419.27" ry="565.03"/>
    <ellipse class="st1" cx="-9020.04" cy="3292.4" rx="419.27" ry="565.03"/>
    <ellipse class="st1" cx="-8179.91" cy="3292.4" rx="419.27" ry="565.03"/>
    <ellipse class="st1" cx="-7351.49" cy="3292.4" rx="419.27" ry="565.03"/>
    <ellipse class="st1" cx="-6512.95" cy="3292.4" rx="419.27" ry="565.03"/>
    <ellipse class="st1" cx="-5684.54" cy="3292.4" rx="419.27" ry="565.03"/>
    <g>
      <path class="st3" d="M-5658.27,3631.84c36.5-171.03,176.09-344.53,361.45-351.04v-6.63c-159.55-15.08-276.71-117.09-339.22-260.61-43.12-99.02-45.69-196.45-51.83-302.76-10.27-177.87-6.56-358.01-6.63-536.86-.08-220.29-11.11-469.17,13.36-685.88,22.66-200.76,134.6-405.4,351.21-437.61l-107.51-38.27c-238.75-127.81-250.29-390.87-257.33-630.8-3.72-126.86,3.33-254.52.27-381.37h-13.26l-6.11,566.57c-14.88,197.62-90.73,378.84-280.93,462.02-18.8,8.22-47.57,5.8-57.61,25.17,208.43,35.16,324.82,251.98,337.95,447.52,14.57,216.92,6.77,447.26,6.7,666.03-.06,181.41,1.94,362.64-6.63,543.49-1.6,33.88,2.42,68.88-.07,102.66-15.95,216.36-158.95,452.24-397.6,454.08-6.59.05-13.31.32-19.88,0-217.96-10.74-346.91-209.09-376.99-408.42-7.5-49.69-4.99-99.35-7.43-148.32-8.88-178.56-6.48-358.02-6.63-536.86-.17-212.52-14.32-458.03,6.72-666.02,21.76-215.07,136.19-423.91,364.51-464.04-160.92-21.68-279.97-152.91-327.88-301.84-25.78-80.14-33.53-170.66-37-254.63-6.67-161.58,5.54-325.67.27-487.42h-19.88c-5.19,161.97,6.85,325.54.28,487.42-5.08,125.01-18.62,246.07-81.11,356.33-59.56,105.09-168.62,188.72-290.32,203.52,1.17,10.51,9.94,10.09,17.23,12.53,130.98,43.67,193.26,73.47,266.49,197.45,126.73,214.56,81.74,659.77,80.8,910.06-.67,180.76,4.8,362.88,0,543.49-7.18,270.43-89.6,535.95-397.67,556.74-4.38.29-8.85-.13-13.26,0-306.93,9.29-390.86-304.97-397.67-556.74-4.86-179.57.61-359.53,0-536.86-.75-222.44-19.85-464.07,6.72-685.89,23.19-193.63,137.78-391.06,338-437.53-147.18-34.98-256.75-159.61-303.12-300.09-30.03-90.99-32.24-200.72-35.25-296.15-4.77-151.08,4.12-303.18.27-454.28h-19.88c1.16,62.93-1.45,126.18-.27,189.17,3.44,183.81,18.11,474.46-69.19,639.45-36.17,68.36-130.97,177.35-203.94,206.99-12.87,5.23-98.1,11.2-97.83,21.54,213.5,33.36,334.95,236.43,357.12,438.29,23.07,210.01,7.49,463.31,7.48,678.5,0,181.28,8.28,371.61,0,550.11-11.88,256.04-79.67,475.41-348.26,550.07-10.61,2.95-19.57-7.18-16.29,13.27,118.32,7.43,223.12,84.84,285.16,182.15,77.52,121.59,87.09,247.12,92.65,387.87,6.93,175.43.28,360.39,0,536.86-.35,219.81,14.54,477.48-13.36,692.51-24.59,189.52-146.91,392.65-351.17,414.41,1.17,10.52,9.94,10.08,17.23,12.53,139.53,46.77,206.14,85.17,275.51,221.58,93.71,184.27,79.61,640.49,72.06,856.44-.44,12.6.66,25.08-6.9,36.12h19.88c-4.55-104.05-5.46-210.58-3.27-314.69,3.74-177.73-11.1-414.59,73.68-579.25,62.68-121.72,165.02-204.49,300.81-229.48-87.39-16.05-168.68-56.29-228.81-122.54-168.68-185.87-140-462.45-142.42-696-.16-15.45.13-30.95,0-46.4-.07-8.84.07-17.68,0-26.51-.02-2.21.02-4.42,0-6.63-.52-70.59-.12-141.5,0-212.09.29-176.84-8.24-363.3,0-536.86,12.66-266.42,85.52-537.32,391.04-570,3.76-.4,9.84-6.46,13.26-6.63,201.87-9.78,343.85,150.72,392.78,332.98,20.39,75.97,14.55,128.49,18.15,203.88.02.47,6.45,2.2,6.63,6.63.18,4.4-.16,8.85,0,13.26,6.45,182.6.32,373.27,0,556.74-.36,210.86,9.86,437.77-6.7,646.15-15.95,200.82-132.19,418.13-344.62,457.46l114.74,50.93c214.68,132.04,223.83,378.47,230.22,604.89,4.46,157.76-3.89,316.4-.28,474.17h13.26c4.31-166.53-5.66-334.18-.27-500.68,2.63-81.32,6.34-183.51,22.13-262.87,34.86-175.29,162.66-343.02,349.37-366.5-206.19-32.92-327.58-229.65-351.24-424.29-25.98-213.82-13.08-461.58-13.36-679.25-.23-179.73-6.63-368.03,6.63-543.49,1.07-14.09,6.63-39.01,6.63-43.08v-99.42c0-192.04,160.22-393.76,351.28-420.87,9.67-1.37,15.59-6.16,33.14-6.63,254.51-6.85,394.56,232.75,410.86,460.71,2.72,38-1.6,77.73.07,115.92,7.71,176.53,6.56,353.15,6.63,530.23.08,205.26,10.88,430.57-6.69,632.9-19.74,227.34-129.75,447.61-377.76,477.34l108.59,37.18c227.58,117.65,255.08,346.71,262.88,578.86,5.73,170.88-4.84,343.02-.28,513.94h13.26c3-140.14-3.91-280.99-.27-421.15,3.29-126.96,3.51-287.47,43.09-407.6,50.29-152.67,171.88-276.29,335.04-301.3-203.27-37.42-324.54-224.1-350.52-418.38-28.52-213.3-14.03-473.26-14.08-691.79-.04-179.24-1.56-358.09,6.63-536.86,3.45-75.33.22-143.45,16.34-218.96Z"/>
      <path class="st3" d="M-9822.81,3709.14c28.12-205.69,150.04-384.72,363.75-425.03-189.08-31.45-311.51-161.7-358.82-343.8-21.67-83.4-15.58-139.89-19.03-222.88-7.29-175.31-6.5-353.15-6.63-530.23-.15-215.8-13.59-460.96,6.7-672.66,20.24-211.21,136.17-425.56,364.53-457.39-108.72-22.64-199.57-84.8-261.29-176.21-63.66-94.28-90.48-208.35-96.61-320.95-9.99-183.57,7.31-375.58-.07-559.99h-19.88c-4.32,153.25,5.68,307.7.28,460.91-5.53,156.64-16.41,313.55-114.05,442.67-62.22,82.28-149.69,132.53-250.8,153.63l70.35,22.18c188.17,86.27,265.62,275.2,280.9,474.91,15.88,207.58,1.24,419.53.06,626.27-1,175.65,5.85,355.17,0,530.23-2.4,71.8-5.81,150.34-21.85,220.07-40.8,177.44-169.29,327.56-356.01,353.24,188.27,12.18,327.16,171.1,369.4,346.48,19.28,80.06,11.94,146.92,15.08,226.83,7.12,180.89,6.59,361.99,6.63,543.49.05,212.22,12.55,450.02-7.48,658.62-19.15,199.46-130.58,407.96-343.84,444.98l112.83,46.22c178.02,105.44,229.9,294.9,238.77,490.3,8.76,193.14-7.1,393.05-.28,586.84h19.88c7.05-166.18-8.06-334.73-3.14-500.56,5.76-194.25,25.57-399.61,185.25-533.54,63.58-53.33,98.5-56.12,171.85-80,7.36-2.39,16.02-2.17,17.19-12.57-190.12-9.74-325.6-202.08-356.11-376.34-35.02-200.05-20.42-445.56-21.68-651.05-.01-2.21.01-4.42,0-6.63-.13-22.04.05-44.24,0-66.28-.37-181.62-9.4-370.41,0-550.11,2.19-41.87,8.24-98.75,14.1-141.65Z"/>
      <path class="st3" d="M-8995.09,5040.41c-19.1-206.18-7.11-443.24-6.72-652.76.34-177.01-2.11-353.65,6.63-530.23,6.35-128.26,4.47-236.45,67.42-353.45,51.99-96.61,168.93-209.1,283.85-216.55v-13.26c-109.99-.45-228.71-92.88-283.82-183.45-70.76-116.3-78.88-241.07-87.34-373.29-11.68-182.6-.61-363.07,0-543.49.12-35.46-.32-70.51,0-106.05.02-2.21-.02-4.42,0-6.63,2.1-213.19-30.55-534.79,47.97-730.81,58.05-144.93,169.28-243.14,323.26-273.32-114.25-25.07-195.77-71.12-263.96-166.92-132.84-186.62-108.32-432.14-106.97-648.07.5-80.7-.99-161.53-.3-242.16h-13.26c-3.46,140.09,4.53,281.06.28,421.14-2.6,85.3-5.24,192.1-23.4,274.86-38.01,173.21-165.71,334.01-348.1,361.15,214.51,40.86,334.71,232.35,357.12,438.3,22.92,210.75,7.23,462.72,7.48,678.5.21,179.89,5.36,364.1,0,543.49-6.44,215.71-85.34,547.16-357.91,556.74v13.26c291.87,15.93,365.87,334.26,371.16,570,3.96,176.36-.84,353.77,0,530.23,1.01,211.94,18.31,433.17-.07,646.15-16.34,189.37-97.46,378.23-283.21,452.49-24.66,9.86-58.51,10.17-74.63,28.04,22.42-1.26,43.36,4.74,64.14,12.12,49.54,17.59,123.74,73.69,157.97,113.79,121.87,142.79,124.05,301.52,129.44,480.32,5.09,168.76-4.36,338.54-.28,507.31h13.26c-.44-213.88-.42-427.37,10.78-640.69,3.78-71.89,10.3-120.84,35.5-191.23,55.22-154.25,173.2-267.22,338.21-291.5-235.68-36.96-344.09-243.55-364.51-464.04Z"/>
      <path class="st3" d="M-8166.61,3714.99c24.95-205.1,149.61-406.34,371.09-427.63-1.26-9.56-9.09-11.08-17.05-12.72-299.27-61.53-353.33-285.86-367.37-557.22-9.35-180.65-6.69-362.18-6.63-543.49.05-153.19-4.37-307.79-.27-460.91,6.56-245.41,16.75-498.05,260.88-627.26l103.97-35.18c-153.52-14.3-276.56-144.52-325.04-284.83-41.92-121.33-42.94-294.72-46.43-424.15-3.06-113.67,2.84-227.96.27-341.61h-13.26c-3,133.5,3.92,267.74.28,401.26-6.33,232.2-13.46,472.15-234.44,607.3l-117.14,48.52c226.14,39.06,339.28,265.47,351.59,477,11.99,206.18,6.15,425.94,6.35,633.24.18,181.35,2.17,362.56-6.63,543.49-3.9,80.25-1.34,153.64-21.84,233.33-38.51,149.75-176.44,324.15-342.7,330.03v13.26c295.49,19.21,368.7,330.92,377.79,570,6.61,173.7-.08,355.57,0,530.23.09,193.47,1.11,387.05-6.9,579.66-3.57,85.86,2.47,151.17-22.32,228.79-46.99,147.16-170.91,296.61-335.31,305.1,10.39,18.87,40.32,15.64,59.5,23.28,239.68,95.48,283.59,332.13,292.05,562.95,6.58,179.62-5.47,360.76-.28,540.45h13.26c4.29-157.68-5.64-316.52-.27-474.17,3.49-102.41,9.58-241.1,39.83-337.96,47.79-153.05,172.89-291.23,338.3-311.29-221.38-52.26-331.19-241.18-351.27-457.39-20.03-215.64-12.16-436.04-13.33-652.78-.79-147.17-18.85-411.31,6.63-536.86,7.04-34.69,1.74-101.63,6.7-142.43Z"/>
    </g>
  </g>
  <g>
    <rect class="st3" x="-5133.86" y="0" width="5002.46" height="6627.87"/>
    <ellipse class="st1" cx="-4714.59" cy="1090.29" rx="419.27" ry="1090.29"/>
    <ellipse class="st1" cx="-3886.18" cy="1090.29" rx="419.27" ry="1090.29"/>
    <ellipse class="st1" cx="-3046.05" cy="1090.29" rx="419.27" ry="1090.29"/>
    <ellipse class="st1" cx="-2217.63" cy="1090.29" rx="419.27" ry="1090.29"/>
    <ellipse class="st1" cx="-1379.09" cy="1090.29" rx="419.27" ry="1090.29"/>
    <ellipse class="st1" cx="-550.68" cy="1090.29" rx="419.27" ry="1090.29"/>
    <ellipse class="st1" cx="-4714.59" cy="5477.94" rx="419.27" ry="1090.29"/>
    <ellipse class="st1" cx="-3886.18" cy="5477.94" rx="419.27" ry="1090.29"/>
    <ellipse class="st1" cx="-3046.05" cy="5477.94" rx="419.27" ry="1090.29"/>
    <ellipse class="st1" cx="-2217.63" cy="5477.94" rx="419.27" ry="1090.29"/>
    <ellipse class="st1" cx="-1379.09" cy="5477.94" rx="419.27" ry="1090.29"/>
    <ellipse class="st1" cx="-550.68" cy="5477.94" rx="419.27" ry="1090.29"/>
    <ellipse class="st1" cx="-4714.59" cy="3292.4" rx="419.27" ry="565.03"/>
    <ellipse class="st1" cx="-3886.18" cy="3292.4" rx="419.27" ry="565.03"/>
    <ellipse class="st1" cx="-3046.05" cy="3292.4" rx="419.27" ry="565.03"/>
    <ellipse class="st1" cx="-2217.63" cy="3292.4" rx="419.27" ry="565.03"/>
    <ellipse class="st1" cx="-1379.09" cy="3292.4" rx="419.27" ry="565.03"/>
    <ellipse class="st1" cx="-550.68" cy="3292.4" rx="419.27" ry="565.03"/>
    <g>
      <path class="st0" d="M-524.41,3631.84c36.5-171.03,176.09-344.53,361.45-351.04v-6.63c-159.55-15.08-276.71-117.09-339.22-260.61-43.12-99.02-45.69-196.45-51.83-302.76-10.27-177.87-6.56-358.01-6.63-536.86-.08-220.29-11.11-469.17,13.36-685.88,22.66-200.76,134.6-405.4,351.21-437.61l-107.51-38.27c-238.75-127.81-250.29-390.87-257.33-630.8-3.72-126.86,3.33-254.52.27-381.37h-13.26l-6.11,566.57c-14.88,197.62-90.73,378.84-280.93,462.02-18.8,8.22-47.57,5.8-57.61,25.17,208.43,35.16,324.82,251.98,337.95,447.52,14.57,216.92,6.77,447.26,6.7,666.03-.06,181.41,1.94,362.64-6.63,543.49-1.6,33.88,2.42,68.88-.07,102.66-15.95,216.36-158.95,452.24-397.6,454.08-6.59.05-13.31.32-19.88,0-217.96-10.74-346.91-209.09-376.99-408.42-7.5-49.69-4.99-99.35-7.43-148.32-8.88-178.56-6.48-358.02-6.63-536.86-.17-212.52-14.32-458.03,6.72-666.02,21.76-215.07,136.19-423.91,364.51-464.04-160.92-21.68-279.97-152.91-327.88-301.84-25.78-80.14-33.53-170.66-37-254.63-6.67-161.58,5.54-325.67.27-487.42h-19.88c-5.19,161.97,6.85,325.54.28,487.42-5.08,125.01-18.62,246.07-81.11,356.33-59.56,105.09-168.62,188.72-290.32,203.52,1.17,10.51,9.94,10.09,17.23,12.53,130.98,43.67,193.26,73.47,266.49,197.45,126.73,214.56,81.74,659.77,80.8,910.06-.67,180.76,4.8,362.88,0,543.49-7.18,270.43-89.6,535.95-397.67,556.74-4.38.29-8.85-.13-13.26,0-306.93,9.29-390.86-304.97-397.67-556.74-4.86-179.57.61-359.53,0-536.86-.75-222.44-19.85-464.07,6.72-685.89,23.19-193.63,137.78-391.06,338-437.53-147.18-34.98-256.75-159.61-303.12-300.09-30.03-90.99-32.24-200.72-35.25-296.15-4.77-151.08,4.12-303.18.27-454.28h-19.88c1.16,62.93-1.45,126.18-.27,189.17,3.44,183.81,18.11,474.46-69.19,639.45-36.17,68.36-130.97,177.35-203.94,206.99-12.87,5.23-98.1,11.2-97.83,21.54,213.5,33.36,334.95,236.43,357.12,438.29,23.07,210.01,7.49,463.31,7.48,678.5,0,181.28,8.28,371.61,0,550.11-11.88,256.04-79.67,475.41-348.26,550.07-10.61,2.95-19.57-7.18-16.29,13.27,118.32,7.43,223.12,84.84,285.16,182.15,77.52,121.59,87.09,247.12,92.65,387.87,6.93,175.43.28,360.39,0,536.86-.35,219.81,14.54,477.48-13.36,692.51-24.59,189.52-146.91,392.65-351.17,414.41,1.17,10.52,9.94,10.08,17.23,12.53,139.53,46.77,206.14,85.17,275.51,221.58,93.71,184.27,79.61,640.49,72.06,856.44-.44,12.6.66,25.08-6.9,36.12h19.88c-4.55-104.05-5.46-210.58-3.27-314.69,3.74-177.73-11.1-414.59,73.68-579.25,62.68-121.72,165.02-204.49,300.81-229.48-87.39-16.05-168.68-56.29-228.81-122.54-168.68-185.87-140-462.45-142.42-696-.16-15.45.13-30.95,0-46.4-.07-8.84.07-17.68,0-26.51-.02-2.21.02-4.42,0-6.63-.52-70.59-.12-141.5,0-212.09.29-176.84-8.24-363.3,0-536.86,12.66-266.42,85.52-537.32,391.04-570,3.76-.4,9.84-6.46,13.26-6.63,201.87-9.78,343.85,150.72,392.78,332.98,20.39,75.97,14.55,128.49,18.15,203.88.02.47,6.45,2.2,6.63,6.63.18,4.4-.16,8.85,0,13.26,6.45,182.6.32,373.27,0,556.74-.36,210.86,9.86,437.77-6.7,646.15-15.95,200.82-132.19,418.13-344.62,457.46l114.74,50.93c214.68,132.04,223.83,378.47,230.22,604.89,4.46,157.76-3.89,316.4-.28,474.17h13.26c4.31-166.53-5.66-334.18-.27-500.68,2.63-81.32,6.34-183.51,22.13-262.87,34.86-175.29,162.66-343.02,349.37-366.5-206.19-32.92-327.58-229.65-351.24-424.29-25.98-213.82-13.08-461.58-13.36-679.25-.23-179.73-6.63-368.03,6.63-543.49,1.07-14.09,6.63-39.01,6.63-43.08v-99.42c0-192.04,160.22-393.76,351.28-420.87,9.67-1.37,15.59-6.16,33.14-6.63,254.51-6.85,394.56,232.75,410.86,460.71,2.72,38-1.6,77.73.07,115.92,7.71,176.53,6.56,353.15,6.63,530.23.08,205.26,10.88,430.57-6.69,632.9-19.74,227.34-129.75,447.61-377.76,477.34l108.59,37.18c227.58,117.65,255.08,346.71,262.88,578.86,5.73,170.88-4.84,343.02-.28,513.94h13.26c3-140.14-3.91-280.99-.27-421.15,3.29-126.96,3.51-287.47,43.09-407.6,50.29-152.67,171.88-276.29,335.04-301.3-203.27-37.42-324.54-224.1-350.52-418.38-28.52-213.3-14.03-473.26-14.08-691.79-.04-179.24-1.56-358.09,6.63-536.86,3.45-75.33.22-143.45,16.34-218.96Z"/>
      <path class="st0" d="M-4688.95,3709.14c28.12-205.69,150.04-384.72,363.75-425.03-189.08-31.45-311.51-161.7-358.82-343.8-21.67-83.4-15.58-139.89-19.03-222.88-7.29-175.31-6.5-353.15-6.63-530.23-.15-215.8-13.59-460.96,6.7-672.66,20.24-211.21,136.17-425.56,364.53-457.39-108.72-22.64-199.57-84.8-261.29-176.21-63.66-94.28-90.48-208.35-96.61-320.95-9.99-183.57,7.31-375.58-.07-559.99h-19.88c-4.32,153.25,5.68,307.7.28,460.91-5.53,156.64-16.41,313.55-114.05,442.67-62.22,82.28-149.69,132.53-250.8,153.63l70.35,22.18c188.17,86.27,265.62,275.2,280.9,474.91,15.88,207.58,1.24,419.53.06,626.27-1,175.65,5.85,355.17,0,530.23-2.4,71.8-5.81,150.34-21.85,220.07-40.8,177.44-169.29,327.56-356.01,353.24,188.27,12.18,327.16,171.1,369.4,346.48,19.28,80.06,11.94,146.92,15.08,226.83,7.12,180.89,6.59,361.99,6.63,543.49.05,212.22,12.55,450.02-7.48,658.62-19.15,199.46-130.58,407.96-343.84,444.98l112.83,46.22c178.02,105.44,229.9,294.9,238.77,490.3,8.76,193.14-7.1,393.05-.28,586.84h19.88c7.05-166.18-8.06-334.73-3.14-500.56,5.76-194.25,25.57-399.61,185.25-533.54,63.58-53.33,98.5-56.12,171.85-80,7.36-2.39,16.02-2.17,17.19-12.57-190.12-9.74-325.6-202.08-356.11-376.34-35.02-200.05-20.42-445.56-21.68-651.05-.01-2.21.01-4.42,0-6.63-.13-22.04.05-44.24,0-66.28-.37-181.62-9.4-370.41,0-550.11,2.19-41.87,8.24-98.75,14.1-141.65Z"/>
      <path class="st0" d="M-3861.22,5040.41c-19.1-206.18-7.11-443.24-6.72-652.76.34-177.01-2.11-353.65,6.63-530.23,6.35-128.26,4.47-236.45,67.42-353.45,51.99-96.61,168.93-209.1,283.85-216.55v-13.26c-109.99-.45-228.71-92.88-283.82-183.45-70.76-116.3-78.88-241.07-87.34-373.29-11.68-182.6-.61-363.07,0-543.49.12-35.46-.32-70.51,0-106.05.02-2.21-.02-4.42,0-6.63,2.1-213.19-30.55-534.79,47.97-730.81,58.05-144.93,169.28-243.14,323.26-273.32-114.25-25.07-195.77-71.12-263.96-166.92-132.84-186.62-108.32-432.14-106.97-648.07.5-80.7-.99-161.53-.3-242.16h-13.26c-3.46,140.09,4.53,281.06.28,421.14-2.6,85.3-5.24,192.1-23.4,274.86-38.01,173.21-165.71,334.01-348.1,361.15,214.51,40.86,334.71,232.35,357.12,438.3,22.92,210.75,7.23,462.72,7.48,678.5.21,179.89,5.36,364.1,0,543.49-6.44,215.71-85.34,547.16-357.91,556.74v13.26c291.87,15.93,365.87,334.26,371.16,570,3.96,176.36-.84,353.77,0,530.23,1.01,211.94,18.31,433.17-.07,646.15-16.34,189.37-97.46,378.23-283.21,452.49-24.66,9.86-58.51,10.17-74.63,28.04,22.42-1.26,43.36,4.74,64.14,12.12,49.54,17.59,123.74,73.69,157.97,113.79,121.87,142.79,124.05,301.52,129.44,480.32,5.09,168.76-4.36,338.54-.28,507.31h13.26c-.44-213.88-.42-427.37,10.78-640.69,3.78-71.89,10.3-120.84,35.5-191.23,55.22-154.25,173.2-267.22,338.21-291.5-235.68-36.96-344.09-243.55-364.51-464.04Z"/>
      <path class="st0" d="M-3032.75,3714.99c24.95-205.1,149.61-406.34,371.09-427.63-1.26-9.56-9.09-11.08-17.05-12.72-299.27-61.53-353.33-285.86-367.37-557.22-9.35-180.65-6.69-362.18-6.63-543.49.05-153.19-4.37-307.79-.27-460.91,6.56-245.41,16.75-498.05,260.88-627.26l103.97-35.18c-153.52-14.3-276.56-144.52-325.04-284.83-41.92-121.33-42.94-294.72-46.43-424.15-3.06-113.67,2.84-227.96.27-341.61h-13.26c-3,133.5,3.92,267.74.28,401.26-6.33,232.2-13.46,472.15-234.44,607.3l-117.14,48.52c226.14,39.06,339.28,265.47,351.59,477,11.99,206.18,6.15,425.94,6.35,633.24.18,181.35,2.17,362.56-6.63,543.49-3.9,80.25-1.34,153.64-21.84,233.33-38.51,149.75-176.44,324.15-342.7,330.03v13.26c295.49,19.21,368.7,330.92,377.79,570,6.61,173.7-.08,355.57,0,530.23.09,193.47,1.11,387.05-6.9,579.66-3.57,85.86,2.47,151.17-22.32,228.79-46.99,147.16-170.91,296.61-335.31,305.1,10.39,18.87,40.32,15.64,59.5,23.28,239.68,95.48,283.59,332.13,292.05,562.95,6.58,179.62-5.47,360.76-.28,540.45h13.26c4.29-157.68-5.64-316.52-.27-474.17,3.49-102.41,9.58-241.1,39.83-337.96,47.79-153.05,172.89-291.23,338.3-311.29-221.38-52.26-331.19-241.18-351.27-457.39-20.03-215.64-12.16-436.04-13.33-652.78-.79-147.17-18.85-411.31,6.63-536.86,7.04-34.69,1.74-101.63,6.7-142.43Z"/>
    </g>
  </g>
  <g>
    <rect class="st4" x="0" y="0" width="5002.46" height="6627.87"/>
    <ellipse class="st1" cx="419.27" cy="1090.29" rx="419.27" ry="1090.29"/>
    <ellipse class="st1" cx="1247.68" cy="1090.29" rx="419.27" ry="1090.29"/>
    <ellipse class="st1" cx="2087.82" cy="1090.29" rx="419.27" ry="1090.29"/>
    <ellipse class="st1" cx="2916.23" cy="1090.29" rx="419.27" ry="1090.29"/>
    <ellipse class="st1" cx="3754.77" cy="1090.29" rx="419.27" ry="1090.29"/>
    <ellipse class="st1" cx="4583.19" cy="1090.29" rx="419.27" ry="1090.29"/>
    <ellipse class="st1" cx="419.27" cy="5477.94" rx="419.27" ry="1090.29"/>
    <ellipse class="st1" cx="1247.68" cy="5477.94" rx="419.27" ry="1090.29"/>
    <ellipse class="st1" cx="2087.82" cy="5477.94" rx="419.27" ry="1090.29"/>
    <ellipse class="st1" cx="2916.23" cy="5477.94" rx="419.27" ry="1090.29"/>
    <ellipse class="st1" cx="3754.77" cy="5477.94" rx="419.27" ry="1090.29"/>
    <ellipse class="st1" cx="4583.19" cy="5477.94" rx="419.27" ry="1090.29"/>
    <ellipse class="st1" cx="419.27" cy="3292.4" rx="419.27" ry="565.03"/>
    <ellipse class="st1" cx="1247.68" cy="3292.4" rx="419.27" ry="565.03"/>
    <ellipse class="st1" cx="2087.82" cy="3292.4" rx="419.27" ry="565.03"/>
    <ellipse class="st1" cx="2916.23" cy="3292.4" rx="419.27" ry="565.03"/>
    <ellipse class="st1" cx="3754.77" cy="3292.4" rx="419.27" ry="565.03"/>
    <ellipse class="st1" cx="4583.19" cy="3292.4" rx="419.27" ry="565.03"/>
    <g>
      <path class="st2" d="M4609.45,3631.84c36.5-171.03,176.09-344.53,361.45-351.04v-6.63c-159.55-15.08-276.71-117.09-339.22-260.61-43.12-99.02-45.69-196.45-51.83-302.76-10.27-177.87-6.56-358.01-6.63-536.86-.08-220.29-11.11-469.17,13.36-685.88,22.66-200.76,134.6-405.4,351.21-437.61l-107.51-38.27c-238.75-127.81-250.29-390.87-257.33-630.8-3.72-126.86,3.33-254.52.27-381.37h-13.26l-6.11,566.57c-14.88,197.62-90.73,378.84-280.93,462.02-18.8,8.22-47.57,5.8-57.61,25.17,208.43,35.16,324.82,251.98,337.95,447.52,14.57,216.92,6.77,447.26,6.7,666.03-.06,181.41,1.94,362.64-6.63,543.49-1.6,33.88,2.42,68.88-.07,102.66-15.95,216.36-158.95,452.24-397.6,454.08-6.59.05-13.31.32-19.88,0-217.96-10.74-346.91-209.09-376.99-408.42-7.5-49.69-4.99-99.35-7.43-148.32-8.88-178.56-6.48-358.02-6.63-536.86-.17-212.52-14.32-458.03,6.72-666.02,21.76-215.07,136.19-423.91,364.51-464.04-160.92-21.68-279.97-152.91-327.88-301.84-25.78-80.14-33.53-170.66-37-254.63-6.67-161.58,5.54-325.67.27-487.42h-19.88c-5.19,161.97,6.85,325.54.28,487.42-5.08,125.01-18.62,246.07-81.11,356.33-59.56,105.09-168.62,188.72-290.32,203.52,1.17,10.51,9.94,10.09,17.23,12.53,130.98,43.67,193.26,73.47,266.49,197.45,126.73,214.56,81.74,659.77,80.8,910.06-.67,180.76,4.8,362.88,0,543.49-7.18,270.43-89.6,535.95-397.67,556.74-4.38.29-8.85-.13-13.26,0-306.93,9.29-390.86-304.97-397.67-556.74-4.86-179.57.61-359.53,0-536.86-.75-222.44-19.85-464.07,6.72-685.89,23.19-193.63,137.78-391.06,338-437.53-147.18-34.98-256.75-159.61-303.12-300.09-30.03-90.99-32.24-200.72-35.25-296.15-4.77-151.08,4.12-303.18.27-454.28h-19.88c1.16,62.93-1.45,126.18-.27,189.17,3.44,183.81,18.11,474.46-69.19,639.45-36.17,68.36-130.97,177.35-203.94,206.99-12.87,5.23-98.1,11.2-97.83,21.54,213.5,33.36,334.95,236.43,357.12,438.29,23.07,210.01,7.49,463.31,7.48,678.5,0,181.28,8.28,371.61,0,550.11-11.88,256.04-79.67,475.41-348.26,550.07-10.61,2.95-19.57-7.18-16.29,13.27,118.32,7.43,223.12,84.84,285.16,182.15,77.52,121.59,87.09,247.12,92.65,387.87,6.93,175.43.28,360.39,0,536.86-.35,219.81,14.54,477.48-13.36,692.51-24.59,189.52-146.91,392.65-351.17,414.41,1.17,10.52,9.94,10.08,17.23,12.53,139.53,46.77,206.14,85.17,275.51,221.58,93.71,184.27,79.61,640.49,72.06,856.44-.44,12.6.66,25.08-6.9,36.12h19.88c-4.55-104.05-5.46-210.58-3.27-314.69,3.74-177.73-11.1-414.59,73.68-579.25,62.68-121.72,165.02-204.49,300.81-229.48-87.39-16.05-168.68-56.29-228.81-122.54-168.68-185.87-140-462.45-142.42-696-.16-15.45.13-30.95,0-46.4-.07-8.84.07-17.68,0-26.51-.02-2.21.02-4.42,0-6.63-.52-70.59-.12-141.5,0-212.09.29-176.84-8.24-363.3,0-536.86,12.66-266.42,85.52-537.32,391.04-570,3.76-.4,9.84-6.46,13.26-6.63,201.87-9.78,343.85,150.72,392.78,332.98,20.39,75.97,14.55,128.49,18.15,203.88.02.47,6.45,2.2,6.63,6.63.18,4.4-.16,8.85,0,13.26,6.45,182.6.32,373.27,0,556.74-.36,210.86,9.86,437.77-6.7,646.15-15.95,200.82-132.19,418.13-344.62,457.46l114.74,50.93c214.68,132.04,223.83,378.47,230.22,604.89,4.46,157.76-3.89,316.4-.28,474.17h13.26c4.31-166.53-5.66-334.18-.27-500.68,2.63-81.32,6.34-183.51,22.13-262.87,34.86-175.29,162.66-343.02,349.37-366.5-206.19-32.92-327.58-229.65-351.24-424.29-25.98-213.82-13.08-461.58-13.36-679.25-.23-179.73-6.63-368.03,6.63-543.49,1.07-14.09,6.63-39.01,6.63-43.08v-99.42c0-192.04,160.22-393.76,351.28-420.87,9.67-1.37,15.59-6.16,33.14-6.63,254.51-6.85,394.56,232.75,410.86,460.71,2.72,38-1.6,77.73.07,115.92,7.71,176.53,6.56,353.15,6.63,530.23.08,205.26,10.88,430.57-6.69,632.9-19.74,227.34-129.75,447.61-377.76,477.34l108.59,37.18c227.58,117.65,255.08,346.71,262.88,578.86,5.73,170.88-4.84,343.02-.28,513.94h13.26c3-140.14-3.91-280.99-.27-421.15,3.29-126.96,3.51-287.47,43.09-407.6,50.29-152.67,171.88-276.29,335.04-301.3-203.27-37.42-324.54-224.1-350.52-418.38-28.52-213.3-14.03-473.26-14.08-691.79-.04-179.24-1.56-358.09,6.63-536.86,3.45-75.33.22-143.45,16.34-218.96Z"/>
      <path class="st2" d="M444.91,3709.14c28.12-205.69,150.04-384.72,363.75-425.03-189.08-31.45-311.51-161.7-358.82-343.8-21.67-83.4-15.58-139.89-19.03-222.88-7.29-175.31-6.5-353.15-6.63-530.23-.15-215.8-13.59-460.96,6.7-672.66,20.24-211.21,136.17-425.56,364.53-457.39-108.72-22.64-199.57-84.8-261.29-176.21-63.66-94.28-90.48-208.35-96.61-320.95-9.99-183.57,7.31-375.58-.07-559.99h-19.88c-4.32,153.25,5.68,307.7.28,460.91-5.53,156.64-16.41,313.55-114.05,442.67-62.22,82.28-149.69,132.53-250.8,153.63l70.35,22.18c188.17,86.27,265.62,275.2,280.9,474.91,15.88,207.58,1.24,419.53.06,626.27-1,175.65,5.85,355.17,0,530.23-2.4,71.8-5.81,150.34-21.85,220.07-40.8,177.44-169.29,327.56-356.01,353.24,188.27,12.18,327.16,171.1,369.4,346.48,19.28,80.06,11.94,146.92,15.08,226.83,7.12,180.89,6.59,361.99,6.63,543.49.05,212.22,12.55,450.02-7.48,658.62-19.15,199.46-130.58,407.96-343.84,444.98l112.83,46.22c178.02,105.44,229.9,294.9,238.77,490.3,8.76,193.14-7.1,393.05-.28,586.84h19.88c7.05-166.18-8.06-334.73-3.14-500.56,5.76-194.25,25.57-399.61,185.25-533.54,63.58-53.33,98.5-56.12,171.85-80,7.36-2.39,16.02-2.17,17.19-12.57-190.12-9.74-325.6-202.08-356.11-376.34-35.02-200.05-20.42-445.56-21.68-651.05-.01-2.21.01-4.42,0-6.63-.13-22.04.05-44.24,0-66.28-.37-181.62-9.4-370.41,0-550.11,2.19-41.87,8.24-98.75,14.1-141.65Z"/>
      <path class="st2" d="M1272.64,5040.41c-19.1-206.18-7.11-443.24-6.72-652.76.34-177.01-2.11-353.65,6.63-530.23,6.35-128.26,4.47-236.45,67.42-353.45,51.99-96.61,168.93-209.1,283.85-216.55v-13.26c-109.99-.45-228.71-92.88-283.82-183.45-70.76-116.3-78.88-241.07-87.34-373.29-11.68-182.6-.61-363.07,0-543.49.12-35.46-.32-70.51,0-106.05.02-2.21-.02-4.42,0-6.63,2.1-213.19-30.55-534.79,47.97-730.81,58.05-144.93,169.28-243.14,323.26-273.32-114.25-25.07-195.77-71.12-263.96-166.92-132.84-186.62-108.32-432.14-106.97-648.07.5-80.7-.99-161.53-.3-242.16h-13.26c-3.46,140.09,4.53,281.06.28,421.14-2.6,85.3-5.24,192.1-23.4,274.86-38.01,173.21-165.71,334.01-348.1,361.15,214.51,40.86,334.71,232.35,357.12,438.3,22.92,210.75,7.23,462.72,7.48,678.5.21,179.89,5.36,364.1,0,543.49-6.44,215.71-85.34,547.16-357.91,556.74v13.26c291.87,15.93,365.87,334.26,371.16,570,3.96,176.36-.84,353.77,0,530.23,1.01,211.94,18.31,433.17-.07,646.15-16.34,189.37-97.46,378.23-283.21,452.49-24.66,9.86-58.51,10.17-74.63,28.04,22.42-1.26,43.36,4.74,64.14,12.12,49.54,17.59,123.74,73.69,157.97,113.79,121.87,142.79,124.05,301.52,129.44,480.32,5.09,168.76-4.36,338.54-.28,507.31h13.26c-.44-213.88-.42-427.37,10.78-640.69,3.78-71.89,10.3-120.84,35.5-191.23,55.22-154.25,173.2-267.22,338.21-291.5-235.68-36.96-344.09-243.55-364.51-464.04Z"/>
      <path class="st2" d="M2101.11,3714.99c24.95-205.1,149.61-406.34,371.09-427.63-1.26-9.56-9.09-11.08-17.05-12.72-299.27-61.53-353.33-285.86-367.37-557.22-9.35-180.65-6.69-362.18-6.63-543.49.05-153.19-4.37-307.79-.27-460.91,6.56-245.41,16.75-498.05,260.88-627.26l103.97-35.18c-153.52-14.3-276.56-144.52-325.04-284.83-41.92-121.33-42.94-294.72-46.43-424.15-3.06-113.67,2.84-227.96.27-341.61h-13.26c-3,133.5,3.92,267.74.28,401.26-6.33,232.2-13.46,472.15-234.44,607.3l-117.14,48.52c226.14,39.06,339.28,265.47,351.59,477,11.99,206.18,6.15,425.94,6.35,633.24.18,181.35,2.17,362.56-6.63,543.49-3.9,80.25-1.34,153.64-21.84,233.33-38.51,149.75-176.44,324.15-342.7,330.03v13.26c295.49,19.21,368.7,330.92,377.79,570,6.61,173.7-.08,355.57,0,530.23.09,193.47,1.11,387.05-6.9,579.66-3.57,85.86,2.47,151.17-22.32,228.79-46.99,147.16-170.91,296.61-335.31,305.1,10.39,18.87,40.32,15.64,59.5,23.28,239.68,95.48,283.59,332.13,292.05,562.95,6.58,179.62-5.47,360.76-.28,540.45h13.26c4.29-157.68-5.64-316.52-.27-474.17,3.49-102.41,9.58-241.1,39.83-337.96,47.79-153.05,172.89-291.23,338.3-311.29-221.38-52.26-331.19-241.18-351.27-457.39-20.03-215.64-12.16-436.04-13.33-652.78-.79-147.17-18.85-411.31,6.63-536.86,7.04-34.69,1.74-101.63,6.7-142.43Z"/>
    </g>
  </g>
</svg>