<?xml version="1.0" encoding="UTF-8"?>
<svg id="Camada_1" xmlns="http://www.w3.org/2000/svg" version="1.1" viewBox="0 0 3770.6 3772.1">
  <!-- Generator: Adobe Illustrator 29.3.0, SVG Export Plug-In . SVG Version: 2.1.0 Build 146)  -->
  <defs>
    <style>
      .st0 {
        fill: #b68b84;
      }

      .st1 {
        fill: #e5deca;
      }

      .st2 {
        fill: #5a5126;
      }

      .st3 {
        fill: #60292e;
      }

      .st4 {
        fill: #a79c72;
      }

      .st5 {
        fill: #cfb594;
      }

      .st6 {
        fill: #bc8981;
      }
    </style>
  </defs>
  <g>
    <g>
      <rect class="st1" x=".4" y="1.9" width="3770.2" height="3770.2"/>
      <rect class="st1" y="2" width="3771" height="3769.9"/>
    </g>
    <path class="st4" d="M469.4,2598.1c-.3-135.4-7.3-273.3,1.9-406,1.3-18.9-5.5-53.8-5.1-78.3,1.6-112.8,9.2-227.4,6.4-339.4-2.8-111.9,5.1-225.2,0-336.7-4.3-283.6-5.3-573.1-3.2-854.5.8-102.9,4.9-206.8,3.1-308.2-1.1-65.2-1.8-132.1-.4-197.9.6-26.1-1.2-51.9,6.1-77.1h-167.2c4.5,29.3,3.6,59.9,3.1,89.7-.7,44.8,2.2,95.4,0,138.3-3.6,67.4,1.2,129.5,2.9,197.9,1,39.9-7.6,67.9-9.2,100.6-.5,9.9,5.5,20,6.3,31.3,1.7,22.2.2,49.7,0,72.6-.2,28.2-2,54.8-5.4,82.3-4.2,34.2,2.1,84.9,2.4,121.7.4,43.2-2.9,86.3-3.3,129-.2,19.3,5.7,39.2,3.3,59.9-1.4,12.1-9.3,16-9.4,28.2,0,14,11.9,27,12.1,41.3.1,7.9-5.3,13.1-5.9,21.5-2,27.7-2.7,80,0,107.1,4.5,46.9,9.1,64.7,3.6,113.8-3.4,31.3.2,66.7-.5,99.8-3.1,144.5,3.7,294.1,3.3,440.1-.1,46.8,5.5,93.1-1,140.7-5.3,39.1,1,79,.9,120.4,0,18.7.4,37.8,0,56.6-.3,17.9-10,44.8-9,59.5,1.2,16.7,5.6,31.8,5.9,53.5.7,53.6-2.7,109.3-3.2,163.5-.2,18.4,5.6,45.4,3.4,63-1.7,13-12.5,13.7-12.4,25,0,8,10.8,20.5,12.3,34.6,4.3,41.9-8.8,100.3-3.2,144.8.7,5.8,5.6,4.1,6.2,6.6,8.9,42.1-4,87.4-5.7,128.5-1,23.2,6.2,57.5,5.5,84.3-1.4,55.8-2.9,113.5-3,170-.2,108.1,4.7,212.6,6.4,320.5.5,35.2-9.2,68-9.4,94.4,0,10.4,5.4,19.9,6.4,31.3,2.8,33.5,1.5,91.6,0,125.9-1.1,23.9-14.5,49-3.1,73.8h155.3c.8-18.2-1-36.9,0-55.1.4-7.9,5.6-12.9,6-18.9,1-15-5.7-43.1-6-59.4-2-119.2,8.8-240,6.2-358.3-1.9-90.3-2.1-178.5,5.5-267.7,3-35.3-4.9-71.4-5.9-106.6-3-102.1-2.3-206.3-2.6-307.9Z"/>
    <path class="st4" d="M1740.6,1714.7c-4-131.3,3.2-261.7,3.7-392.8.3-67-2.6-132,0-198,.9-22.7,2-60.3.2-81.9-.6-6.7-5.7-10.8-5.6-15.1,0-6.2,7.3-19,8.3-28.8,5.8-54.4,2.3-123.6,2.8-179.1,1.7-173.4,1.9-343.4-6-515.5-.7-14.9,2.1-33.5.4-47.5-.7-6-5.7-3-6.4-9-6.1-51.1,3.8-125.7,3.2-179.4-.2-21.4-7.5-45.1,0-67.6h-161.2c-5.5,24.2-1.9,49.3-2.9,74-6,159.8-2.1,320.4-.2,480.9.4,32,5.4,64.7,3.1,97.3-5,70.9-1,145.4.2,216.9,2.2,130-12.9,261.1-9.3,393.1,1.9,70.6,19.4,172.8,12.2,238.8-14.2,128.8-7.2,253.5-5.9,383.3,1.6,165.5.3,329.9,2.6,493.3,1.8,130.1-12.1,261.7-8.8,393.4,1.8,71,19.5,172.5,12.2,238.9-24.7,224.1,6.7,454.5-9.1,678.8l6,83.3h170.2c.5-34-.6-68.2-.1-102.3,1.6-119.1.3-235.7-5.8-355.1-4.3-85.2-5.8-169.9-6-254.6,0-11.5-1.5-27.3-.3-37.9.7-6,5.7-3,6.4-9,3-24.7-3.1-56.8-3.4-81.8-.7-66.1,4.9-132,3.3-198.3-1-40.4-1.9-62.8,0-103.5,2-43.7-.5-82.1,2.8-125.9,1.8-23-1.5-54.5-.2-78.6,12.3-236.6.9-475.5-6.3-710.4Z"/>
    <path class="st4" d="M155.9,2550.7c2-71.8,5.8-145.5,6.1-217.1.9-183.3,10.2-385.6-6.4-568.4-9.8-108.6-2.3-223.5-3-333.2-.4-68.2,4.6-136,3.3-204.6-2.6-133,3.8-265.7,5.7-398.9,2-134.5,3.7-269.6.3-402.3-3.3-130.2-14.5-257.3-12.3-386.8C149.8,25.8,153.9,13.5,152.7,0H.5v3772h161.2c4.8-30.6-.1-61.5,0-92.7.6-119.8,3.6-243.9-3-364.6-6.1-111.2-8.9-202.4-2.8-314.2,1.8-33.7-7.3-72.8-3.4-104.1.8-6.1,6.1-4.2,6.4-6.4.4-3.4-6.5-41-6.1-56.2,2.6-94.9.5-188,3.1-283.1Z"/>
    <path class="st4" d="M1117.3,2148.3c-9.1-194.9-14.1-377.7-6.1-572,8.3-204.5-8.2-405.9-6.1-609.9.7-63.4,10.4-128,12.2-191.5,3.2-110.7-7.1-224.8-9.2-336.6-2.6-138.2-4.3-276.2,3-414.9.4-8,3.4-15.4,3.1-23.5h-167.2c2.2,13.5-3.3,26.5-3.2,39.3,0,7.4,3.3,14.4,3.4,21.9,1.1,247.8-10.9,496.5-9.2,745.2,1.1,162.1,11.9,325.2,12.4,487.1,0,19.5-4.7,29.2-10.2,43.1-2.3,5.7,3.6,74.1,4,88.9,2.3,98.6,1.7,199-.1,298.8-4.8,256.8-11,516.1-6,773.2,1.9,97.5,13.4,204.3,11.8,301.3-.4,20.4-11.5,42.1-11.7,57.1-.4,25.4,8.2,60.8,9,87.9,6.5,230.1-5.1,466.3-9,697.7-.7,43.5.8,87.1.1,130.6h179.2c-1.3-38.1,1.7-76.7.1-114.9-8.2-195-14.2-377.9-6.1-572,6.7-160.4,1-317.7-6.1-477.6-6.8-153.3,19.4-305.6,12.2-459.2Z"/>
    <path class="st4" d="M1428,2620.3c3.2-233.5-8.1-465.4-.6-698.1,5.6-172.6.9-345.7.1-518.5-.3-71.8-1.4-142.1.2-213.8,5.7-259.4-8-518.6-.2-776.5,3.8-125.8,4-241.3.3-367.9-.4-14.9-7.2-29.6-.1-45.4h-167.2c-3.5,25.1,4.9,49.7,6.1,73.7,7.5,155.7-8.4,316.9-12.2,471.5-8.6,346.7,1.3,691.5,12.2,1037.3,4.9,154.5-8,311.1-12.2,465.2-8.1,296.7-.5,593.7,6.2,889.6,2.3,102.9,7.7,205.2,6,308.3-2.6,159.1-17.4,320.4-17.4,480.8,0,13.6,4.8,30.8,2.4,45.6h176.2c-5.8-107-8.4-213.5,2.7-319.4,3.6-276.3-6.2-554.9-2.4-832.3Z"/>
    <path class="st4" d="M797.2,1010.6c.2-27.3-5.2-63.4-5.5-94.4-1.3-160.7-4.9-322.7-1-484.5,2.5-102.8,0-199.2-2-301.4-.5-25.8-2.4-52.1-3-78.3C785.3,34.3,786.9,17.5,788.8,0h-161.2v3772h167.2c-9.8-113.4-9.1-227.2-6.1-341.2,4.2-159.7-1.4-317.6,0-477.8,1.2-139.5-7-282.1,6.1-421.1,1-10.4.2-23.8,0-34.6-2.4-101.9-3.6-202.7-6.1-304.8-5.1-215.4,14.5-430.8-3-644.5-.4-5.3-2.8-4.4-2.9-4.7-.2-2.8-.4-6.9,0-9.4,9.5-59,6.3-120.5,6.1-180.9-.2-85.9-4-174.3-3.4-260.8.2-26.1,11.4-59.8,11.6-81.7Z"/>
    <path class="st4" d="M2356.2,2598.1c-.3-135.4-7.3-273.3,1.9-406,1.3-18.9-5.5-53.8-5.1-78.3,1.6-112.8,9.2-227.4,6.4-339.4-2.8-111.9,5.1-225.2,0-336.7-4.3-283.6-5.3-573.1-3.2-854.5.8-102.9,4.9-206.8,3.1-308.2-1.1-65.2-1.9-132.1-.4-197.9.6-26.1-1.2-51.9,6.1-77.1h-167.2c4.5,29.3,3.6,59.9,3.1,89.7-.7,44.8,2.2,95.4,0,138.3-3.6,67.4,1.2,129.5,2.9,197.9,1,39.9-7.6,67.9-9.2,100.6-.5,9.9,5.5,20,6.3,31.3,1.7,22.2.2,49.7,0,72.6-.2,28.2-2,54.8-5.4,82.3-4.2,34.2,2.1,84.9,2.4,121.7.4,43.2-2.9,86.3-3.3,129-.2,19.3,5.7,39.2,3.3,59.9-1.4,12.1-9.3,16-9.4,28.2,0,14,11.9,27,12.1,41.3.1,7.9-5.3,13.1-5.9,21.5-2,27.7-2.7,80,0,107.1,4.5,46.9,9.1,64.7,3.6,113.8-3.4,31.3.2,66.7-.5,99.8-3.1,144.5,3.7,294.1,3.3,440.1-.1,46.8,5.5,93.1-1,140.7-5.3,39.1,1,79,.9,120.4,0,18.7.4,37.8,0,56.6-.3,17.9-10,44.8-9,59.5,1.2,16.7,5.6,31.8,5.9,53.5.7,53.6-2.7,109.3-3.2,163.5-.2,18.4,5.6,45.4,3.4,63-1.7,13-12.5,13.7-12.4,25,0,8,10.8,20.5,12.3,34.6,4.3,41.9-8.8,100.3-3.2,144.8.7,5.8,5.6,4.1,6.2,6.6,8.9,42.1-4,87.4-5.7,128.5-1,23.2,6.2,57.5,5.5,84.3-1.4,55.8-2.9,113.5-3,170-.2,108.1,4.7,212.6,6.4,320.5.5,35.2-9.2,68-9.4,94.4,0,10.4,5.4,19.9,6.4,31.3,2.8,33.5,1.5,91.6,0,125.9-1.1,23.9-14.5,49-3.1,73.8h155.3c.8-18.2-1-36.9,0-55.1.4-7.9,5.6-12.9,6-18.9,1-15-5.7-43.1-6-59.4-2-119.2,8.8-240,6.2-358.3-1.9-90.3-2.1-178.5,5.5-267.7,3-35.3-4.9-71.4-5.9-106.6-3-102.1-2.3-206.3-2.6-307.9Z"/>
    <path class="st4" d="M3631,3314.6c-4.3-85.2-5.8-169.9-6-254.6,0-11.5-1.5-27.3-.3-37.9.7-6,5.7-3,6.4-9,3-24.7-3.1-56.8-3.4-81.8-.7-66.1,4.9-132,3.3-198.3-1-40.4-1.9-62.8,0-103.5,2-43.7-.5-82.1,2.9-125.9,1.8-23-1.5-54.5-.2-78.5,12.3-236.6.9-475.5-6.3-710.4-4-131.3,3.2-261.7,3.7-392.8.3-67-2.6-132,0-198,.9-22.7,2-60.3.2-81.9-.6-6.7-5.7-10.8-5.6-15.1,0-6.2,7.3-19,8.3-28.8,5.8-54.4,2.3-123.6,2.8-179.1,1.7-173.4,1.9-343.4-6-515.5-.7-14.9,2.1-33.5.4-47.5-.7-6-5.7-3-6.4-9-6.1-51.1,3.8-125.7,3.2-179.4-.2-21.4-7.5-45.1,0-67.6h-161.2c-5.5,24.2-1.9,49.3-2.9,74-6,159.8-2.1,320.4-.2,480.9.4,32,5.4,64.7,3.1,97.3-5,70.9-1,145.4.2,216.9,2.2,130-12.9,261.1-9.3,393.1,1.9,70.6,19.4,172.8,12.2,238.8-14.2,128.8-7.2,253.5-5.9,383.3,1.6,165.5.3,329.9,2.6,493.3,1.8,130.1-12.1,261.7-8.8,393.4,1.8,71,19.5,172.5,12.2,238.9-24.7,224.1,6.7,454.5-9.1,678.8l6,83.3h170.2c.5-34-.6-68.2-.1-102.3,1.6-119.1.3-235.7-5.8-355.1Z"/>
    <path class="st4" d="M2042.7,2550.7c2-71.8,5.8-145.5,6.1-217.1.9-183.3,10.2-385.6-6.4-568.4-9.8-108.6-2.3-223.5-3-333.2-.4-68.2,4.6-136,3.3-204.6-2.6-133,3.8-265.7,5.7-398.9,2-134.5,3.7-269.6.3-402.3-3.3-130.2-14.5-257.3-12.3-386.8C2036.6,25.8,2040.7,13.5,2039.5,0h-152.3v3772h161.2c4.8-30.6-.1-61.5,0-92.7.6-119.8,3.6-243.9-3-364.6-6.1-111.2-8.9-202.4-2.8-314.2,1.8-33.7-7.3-72.8-3.4-104.1.8-6.1,6.1-4.2,6.4-6.4.4-3.4-6.5-41-6.1-56.2,2.6-94.9.5-188,3.1-283.1Z"/>
    <path class="st4" d="M3004.1,2148.3c-9.1-194.9-14.1-377.7-6.1-572,8.3-204.5-8.2-405.9-6.1-609.9.7-63.4,10.4-128,12.2-191.5,3.2-110.7-7.1-224.8-9.2-336.6-2.6-138.2-4.3-276.2,3-414.9.4-8,3.4-15.4,3.1-23.5h-167.2c2.2,13.5-3.3,26.5-3.2,39.3,0,7.4,3.3,14.4,3.4,21.9,1.1,247.8-10.9,496.5-9.2,745.2,1.1,162.1,11.9,325.2,12.4,487.1,0,19.5-4.7,29.2-10.2,43.1-2.3,5.7,3.6,74.1,4,88.9,2.3,98.6,1.7,199-.1,298.8-4.8,256.8-11,516.1-6,773.2,1.9,97.5,13.4,204.3,11.8,301.3-.4,20.4-11.5,42.1-11.7,57.1-.4,25.4,8.2,60.8,9,87.9,6.5,230.1-5.1,466.3-9,697.7-.7,43.5.8,87.1.1,130.6h179.2c-1.3-38.1,1.7-76.7.1-114.9-8.2-195-14.2-377.9-6.1-572,6.7-160.4,1-317.7-6.1-477.6-6.8-153.3,19.4-305.6,12.2-459.2Z"/>
    <path class="st4" d="M3314.8,2620.3c3.2-233.5-8.1-465.4-.6-698.1,5.6-172.6.9-345.7.1-518.5-.3-71.8-1.4-142.1.2-213.8,5.7-259.4-8-518.6-.2-776.5,3.8-125.8,4-241.3.3-367.9-.4-14.9-7.2-29.6-.1-45.4h-167.2c-3.5,25.1,4.9,49.7,6.1,73.7,7.5,155.7-8.4,316.9-12.2,471.5-8.6,346.7,1.3,691.5,12.2,1037.3,4.9,154.5-8,311.1-12.2,465.2-8.1,296.7-.5,593.7,6.2,889.6,2.3,102.9,7.7,205.2,6,308.3-2.6,159.1-17.4,320.4-17.4,480.8,0,13.6,4.8,30.8,2.4,45.6h176.2c-5.8-107-8.4-213.5,2.7-319.4,3.6-276.3-6.2-554.9-2.4-832.3Z"/>
    <path class="st4" d="M2683.9,1010.6c.2-27.3-5.2-63.4-5.5-94.4-1.3-160.7-4.9-322.7-1-484.5,2.5-102.8,0-199.2-2-301.4-.5-25.8-2.4-52.1-3-78.3C2672.1,34.3,2673.7,17.5,2675.6,0h-161.2v3772h167.2c-9.8-113.4-9.1-227.2-6.1-341.2,4.2-159.7-1.4-317.6,0-477.8,1.2-139.5-7-282.1,6.1-421.1,1-10.4.2-23.8,0-34.6-2.4-101.9-3.6-202.7-6.1-304.8-5.1-215.4,14.5-430.8-3-644.5-.4-5.3-2.8-4.4-2.9-4.7-.2-2.8-.4-6.9,0-9.4,9.5-59,6.3-120.5,6.1-180.9-.2-85.9-4-174.3-3.4-260.8.2-26.1,11.4-59.8,11.6-81.7Z"/>
  </g>
  <g>
    <g>
      <rect class="st1" x=".4" y="-4154.3" width="3770.2" height="3770.2"/>
      <rect class="st1" y="-4154.2" width="3771" height="3769.9"/>
    </g>
    <path class="st5" d="M469.4-1558.1c-.3-135.4-7.3-273.3,1.9-406,1.3-18.9-5.5-53.8-5.1-78.3,1.6-112.8,9.2-227.4,6.4-339.4-2.8-111.9,5.1-225.2,0-336.7-4.3-283.6-5.3-573.1-3.2-854.5.8-102.9,4.9-206.8,3.1-308.2-1.1-65.2-1.8-132.1-.4-197.9.6-26.1-1.2-51.9,6.1-77.1h-167.2c4.5,29.3,3.6,59.9,3.1,89.7-.7,44.8,2.2,95.4,0,138.3-3.6,67.4,1.2,129.5,2.9,197.9,1,39.9-7.6,67.9-9.2,100.6-.5,9.9,5.5,20,6.3,31.3,1.7,22.2.2,49.7,0,72.6-.2,28.2-2,54.8-5.4,82.3-4.2,34.2,2.1,84.9,2.4,121.7.4,43.2-2.9,86.3-3.3,129-.2,19.3,5.7,39.2,3.3,59.9-1.4,12.1-9.3,16-9.4,28.2,0,14,11.9,27,12.1,41.3.1,7.9-5.3,13.1-5.9,21.5-2,27.7-2.7,80,0,107.1,4.5,46.9,9.1,64.7,3.6,113.8-3.4,31.3.2,66.7-.5,99.8-3.1,144.5,3.7,294.1,3.3,440.1-.1,46.8,5.5,93.1-1,140.7-5.3,39.1,1,79,.9,120.4,0,18.7.4,37.8,0,56.6-.3,17.9-10,44.8-9,59.5,1.2,16.7,5.6,31.8,5.9,53.5.7,53.6-2.7,109.3-3.2,163.5-.2,18.4,5.6,45.4,3.4,63-1.7,13-12.5,13.7-12.4,25,0,8,10.8,20.5,12.3,34.6,4.3,41.9-8.8,100.3-3.2,144.8.7,5.8,5.6,4.1,6.2,6.6,8.9,42.1-4,87.4-5.7,128.5-1,23.2,6.2,57.5,5.5,84.3-1.4,55.8-2.9,113.5-3,170-.2,108.1,4.7,212.6,6.4,320.5.5,35.2-9.2,68-9.4,94.4,0,10.4,5.4,19.9,6.4,31.3,2.8,33.5,1.5,91.6,0,125.9-1.1,23.9-14.5,49-3.1,73.8h155.3c.8-18.2-1-36.9,0-55.1.4-7.9,5.6-12.9,6-18.9,1-15-5.7-43.1-6-59.4-2-119.2,8.8-240,6.2-358.3-1.9-90.3-2.1-178.5,5.5-267.7,3-35.3-4.9-71.4-5.9-106.6-3-102.1-2.3-206.3-2.6-307.9Z"/>
    <path class="st5" d="M1740.6-2441.6c-4-131.3,3.2-261.7,3.7-392.8.3-67-2.6-132,0-198,.9-22.7,2-60.3.2-81.9-.6-6.7-5.7-10.8-5.6-15.1,0-6.2,7.3-19,8.3-28.8,5.8-54.4,2.3-123.6,2.8-179.1,1.7-173.4,1.9-343.4-6-515.5-.7-14.9,2.1-33.5.4-47.5-.7-6-5.7-3-6.4-9-6.1-51.1,3.8-125.7,3.2-179.4-.2-21.4-7.5-45.1,0-67.6h-161.2c-5.5,24.2-1.9,49.3-2.9,74-6,159.8-2.1,320.4-.2,480.9.4,32,5.4,64.7,3.1,97.3-5,70.9-1,145.4.2,216.9,2.2,130-12.9,261.1-9.3,393.1,1.9,70.6,19.4,172.8,12.2,238.8-14.2,128.8-7.2,253.5-5.9,383.3,1.6,165.5.3,329.9,2.6,493.3,1.8,130.1-12.1,261.7-8.8,393.4,1.8,71,19.5,172.5,12.2,238.9-24.7,224.1,6.7,454.5-9.1,678.8l6,83.3h170.2c.5-34-.6-68.2-.1-102.3,1.6-119.1.3-235.7-5.8-355.1-4.3-85.2-5.8-169.9-6-254.6,0-11.5-1.5-27.3-.3-37.9.7-6,5.7-3,6.4-9,3-24.7-3.1-56.8-3.4-81.8-.7-66.1,4.9-132,3.3-198.3-1-40.4-1.9-62.8,0-103.5,2-43.7-.5-82.1,2.8-125.9,1.8-23-1.5-54.5-.2-78.6,12.3-236.6.9-475.5-6.3-710.4Z"/>
    <path class="st5" d="M155.9-1605.5c2-71.8,5.8-145.5,6.1-217.1.9-183.3,10.2-385.6-6.4-568.4-9.8-108.6-2.3-223.5-3-333.2-.4-68.2,4.6-136,3.3-204.6-2.6-133,3.8-265.7,5.7-398.9,2-134.5,3.7-269.6.3-402.3-3.3-130.2-14.5-257.3-12.3-386.8.2-13.5,4.3-25.8,3.2-39.3H.5V-384.2h161.2c4.8-30.6-.1-61.5,0-92.7.6-119.8,3.6-243.9-3-364.6-6.1-111.2-8.9-202.4-2.8-314.2,1.8-33.7-7.3-72.8-3.4-104.1.8-6.1,6.1-4.2,6.4-6.4.4-3.4-6.5-41-6.1-56.2,2.6-94.9.5-188,3.1-283.1Z"/>
    <path class="st5" d="M1117.3-2007.9c-9.1-194.9-14.1-377.7-6.1-572,8.3-204.5-8.2-405.9-6.1-609.9.7-63.4,10.4-128,12.2-191.5,3.2-110.7-7.1-224.8-9.2-336.6-2.6-138.2-4.3-276.2,3-414.9.4-8,3.4-15.4,3.1-23.5h-167.2c2.2,13.5-3.3,26.5-3.2,39.3,0,7.4,3.3,14.4,3.4,21.9,1.1,247.8-10.9,496.5-9.2,745.2,1.1,162.1,11.9,325.2,12.4,487.1,0,19.5-4.7,29.2-10.2,43.1-2.3,5.7,3.6,74.1,4,88.9,2.3,98.6,1.7,199-.1,298.8-4.8,256.8-11,516.1-6,773.2,1.9,97.5,13.4,204.3,11.8,301.3-.4,20.4-11.5,42.1-11.7,57.1-.4,25.4,8.2,60.8,9,87.9,6.5,230.1-5.1,466.3-9,697.7-.7,43.5.8,87.1.1,130.6h179.2c-1.3-38.1,1.7-76.7.1-114.9-8.2-195-14.2-377.9-6.1-572,6.7-160.4,1-317.7-6.1-477.6-6.8-153.3,19.4-305.6,12.2-459.2Z"/>
    <path class="st5" d="M1428-1535.9c3.2-233.5-8.1-465.4-.6-698.1,5.6-172.6.9-345.7.1-518.5-.3-71.8-1.4-142.1.2-213.8,5.7-259.4-8-518.6-.2-776.5,3.8-125.8,4-241.3.3-367.9-.4-14.9-7.2-29.6-.1-45.4h-167.2c-3.5,25.1,4.9,49.7,6.1,73.7,7.5,155.7-8.4,316.9-12.2,471.5-8.6,346.7,1.3,691.5,12.2,1037.3,4.9,154.5-8,311.1-12.2,465.2-8.1,296.7-.5,593.7,6.2,889.6,2.3,102.9,7.7,205.2,6,308.3-2.6,159.1-17.4,320.4-17.4,480.8,0,13.6,4.8,30.8,2.4,45.6h176.2c-5.8-107-8.4-213.5,2.7-319.4,3.6-276.3-6.2-554.9-2.4-832.3Z"/>
    <path class="st5" d="M797.2-3145.6c.2-27.3-5.2-63.4-5.5-94.4-1.3-160.7-4.9-322.7-1-484.5,2.5-102.8,0-199.2-2-301.4-.5-25.8-2.4-52.1-3-78.3-.4-17.8,1.2-34.6,3.1-52h-161.2V-384.2h167.2c-9.8-113.4-9.1-227.2-6.1-341.2,4.2-159.7-1.4-317.6,0-477.8,1.2-139.5-7-282.1,6.1-421.1,1-10.4.2-23.8,0-34.6-2.4-101.9-3.6-202.7-6.1-304.8-5.1-215.4,14.5-430.8-3-644.5-.4-5.3-2.8-4.4-2.9-4.7-.2-2.8-.4-6.9,0-9.4,9.5-59,6.3-120.5,6.1-180.9-.2-85.9-4-174.3-3.4-260.8.2-26.1,11.4-59.8,11.6-81.7Z"/>
    <path class="st5" d="M2356.2-1558.1c-.3-135.4-7.3-273.3,1.9-406,1.3-18.9-5.5-53.8-5.1-78.3,1.6-112.8,9.2-227.4,6.4-339.4-2.8-111.9,5.1-225.2,0-336.7-4.3-283.6-5.3-573.1-3.2-854.5.8-102.9,4.9-206.8,3.1-308.2-1.1-65.2-1.9-132.1-.4-197.9.6-26.1-1.2-51.9,6.1-77.1h-167.2c4.5,29.3,3.6,59.9,3.1,89.7-.7,44.8,2.2,95.4,0,138.3-3.6,67.4,1.2,129.5,2.9,197.9,1,39.9-7.6,67.9-9.2,100.6-.5,9.9,5.5,20,6.3,31.3,1.7,22.2.2,49.7,0,72.6-.2,28.2-2,54.8-5.4,82.3-4.2,34.2,2.1,84.9,2.4,121.7.4,43.2-2.9,86.3-3.3,129-.2,19.3,5.7,39.2,3.3,59.9-1.4,12.1-9.3,16-9.4,28.2,0,14,11.9,27,12.1,41.3.1,7.9-5.3,13.1-5.9,21.5-2,27.7-2.7,80,0,107.1,4.5,46.9,9.1,64.7,3.6,113.8-3.4,31.3.2,66.7-.5,99.8-3.1,144.5,3.7,294.1,3.3,440.1-.1,46.8,5.5,93.1-1,140.7-5.3,39.1,1,79,.9,120.4,0,18.7.4,37.8,0,56.6-.3,17.9-10,44.8-9,59.5,1.2,16.7,5.6,31.8,5.9,53.5.7,53.6-2.7,109.3-3.2,163.5-.2,18.4,5.6,45.4,3.4,63-1.7,13-12.5,13.7-12.4,25,0,8,10.8,20.5,12.3,34.6,4.3,41.9-8.8,100.3-3.2,144.8.7,5.8,5.6,4.1,6.2,6.6,8.9,42.1-4,87.4-5.7,128.5-1,23.2,6.2,57.5,5.5,84.3-1.4,55.8-2.9,113.5-3,170-.2,108.1,4.7,212.6,6.4,320.5.5,35.2-9.2,68-9.4,94.4,0,10.4,5.4,19.9,6.4,31.3,2.8,33.5,1.5,91.6,0,125.9-1.1,23.9-14.5,49-3.1,73.8h155.3c.8-18.2-1-36.9,0-55.1.4-7.9,5.6-12.9,6-18.9,1-15-5.7-43.1-6-59.4-2-119.2,8.8-240,6.2-358.3-1.9-90.3-2.1-178.5,5.5-267.7,3-35.3-4.9-71.4-5.9-106.6-3-102.1-2.3-206.3-2.6-307.9Z"/>
    <path class="st5" d="M3631-841.6c-4.3-85.2-5.8-169.9-6-254.6,0-11.5-1.5-27.3-.3-37.9.7-6,5.7-3,6.4-9,3-24.7-3.1-56.8-3.4-81.8-.7-66.1,4.9-132,3.3-198.3-1-40.4-1.9-62.8,0-103.5,2-43.7-.5-82.1,2.9-125.9,1.8-23-1.5-54.5-.2-78.5,12.3-236.6.9-475.5-6.3-710.4-4-131.3,3.2-261.7,3.7-392.8.3-67-2.6-132,0-198,.9-22.7,2-60.3.2-81.9-.6-6.7-5.7-10.8-5.6-15.1,0-6.2,7.3-19,8.3-28.8,5.8-54.4,2.3-123.6,2.8-179.1,1.7-173.4,1.9-343.4-6-515.5-.7-14.9,2.1-33.5.4-47.5-.7-6-5.7-3-6.4-9-6.1-51.1,3.8-125.7,3.2-179.4-.2-21.4-7.5-45.1,0-67.6h-161.2c-5.5,24.2-1.9,49.3-2.9,74-6,159.8-2.1,320.4-.2,480.9.4,32,5.4,64.7,3.1,97.3-5,70.9-1,145.4.2,216.9,2.2,130-12.9,261.1-9.3,393.1,1.9,70.6,19.4,172.8,12.2,238.8-14.2,128.8-7.2,253.5-5.9,383.3,1.6,165.5.3,329.9,2.6,493.3,1.8,130.1-12.1,261.7-8.8,393.4,1.8,71,19.5,172.5,12.2,238.9-24.7,224.1,6.7,454.5-9.1,678.8l6,83.3h170.2c.5-34-.6-68.2-.1-102.3,1.6-119.1.3-235.7-5.8-355.1Z"/>
    <path class="st5" d="M2042.7-1605.5c2-71.8,5.8-145.5,6.1-217.1.9-183.3,10.2-385.6-6.4-568.4-9.8-108.6-2.3-223.5-3-333.2-.4-68.2,4.6-136,3.3-204.6-2.6-133,3.8-265.7,5.7-398.9,2-134.5,3.7-269.6.3-402.3-3.3-130.2-14.5-257.3-12.3-386.8.2-13.5,4.3-25.8,3.2-39.3h-152.3V-384.2h161.2c4.8-30.6-.1-61.5,0-92.7.6-119.8,3.6-243.9-3-364.6-6.1-111.2-8.9-202.4-2.8-314.2,1.8-33.7-7.3-72.8-3.4-104.1.8-6.1,6.1-4.2,6.4-6.4.4-3.4-6.5-41-6.1-56.2,2.6-94.9.5-188,3.1-283.1Z"/>
    <path class="st5" d="M3004.1-2007.9c-9.1-194.9-14.1-377.7-6.1-572,8.3-204.5-8.2-405.9-6.1-609.9.7-63.4,10.4-128,12.2-191.5,3.2-110.7-7.1-224.8-9.2-336.6-2.6-138.2-4.3-276.2,3-414.9.4-8,3.4-15.4,3.1-23.5h-167.2c2.2,13.5-3.3,26.5-3.2,39.3,0,7.4,3.3,14.4,3.4,21.9,1.1,247.8-10.9,496.5-9.2,745.2,1.1,162.1,11.9,325.2,12.4,487.1,0,19.5-4.7,29.2-10.2,43.1-2.3,5.7,3.6,74.1,4,88.9,2.3,98.6,1.7,199-.1,298.8-4.8,256.8-11,516.1-6,773.2,1.9,97.5,13.4,204.3,11.8,301.3-.4,20.4-11.5,42.1-11.7,57.1-.4,25.4,8.2,60.8,9,87.9,6.5,230.1-5.1,466.3-9,697.7-.7,43.5.8,87.1.1,130.6h179.2c-1.3-38.1,1.7-76.7.1-114.9-8.2-195-14.2-377.9-6.1-572,6.7-160.4,1-317.7-6.1-477.6-6.8-153.3,19.4-305.6,12.2-459.2Z"/>
    <path class="st5" d="M3314.8-1535.9c3.2-233.5-8.1-465.4-.6-698.1,5.6-172.6.9-345.7.1-518.5-.3-71.8-1.4-142.1.2-213.8,5.7-259.4-8-518.6-.2-776.5,3.8-125.8,4-241.3.3-367.9-.4-14.9-7.2-29.6-.1-45.4h-167.2c-3.5,25.1,4.9,49.7,6.1,73.7,7.5,155.7-8.4,316.9-12.2,471.5-8.6,346.7,1.3,691.5,12.2,1037.3,4.9,154.5-8,311.1-12.2,465.2-8.1,296.7-.5,593.7,6.2,889.6,2.3,102.9,7.7,205.2,6,308.3-2.6,159.1-17.4,320.4-17.4,480.8,0,13.6,4.8,30.8,2.4,45.6h176.2c-5.8-107-8.4-213.5,2.7-319.4,3.6-276.3-6.2-554.9-2.4-832.3Z"/>
    <path class="st5" d="M2683.9-3145.6c.2-27.3-5.2-63.4-5.5-94.4-1.3-160.7-4.9-322.7-1-484.5,2.5-102.8,0-199.2-2-301.4-.5-25.8-2.4-52.1-3-78.3-.4-17.8,1.2-34.6,3.1-52h-161.2V-384.2h167.2c-9.8-113.4-9.1-227.2-6.1-341.2,4.2-159.7-1.4-317.6,0-477.8,1.2-139.5-7-282.1,6.1-421.1,1-10.4.2-23.8,0-34.6-2.4-101.9-3.6-202.7-6.1-304.8-5.1-215.4,14.5-430.8-3-644.5-.4-5.3-2.8-4.4-2.9-4.7-.2-2.8-.4-6.9,0-9.4,9.5-59,6.3-120.5,6.1-180.9-.2-85.9-4-174.3-3.4-260.8.2-26.1,11.4-59.8,11.6-81.7Z"/>
  </g>
  <g>
    <g>
      <rect class="st4" x="3953.3" y="-4154.3" width="3770.2" height="3770.2"/>
      <rect class="st4" x="3952.9" y="-4154.2" width="3771" height="3769.9"/>
    </g>
    <path class="st2" d="M4422.3-1558.1c-.3-135.4-7.3-273.3,1.9-406,1.3-18.9-5.5-53.8-5.1-78.3,1.6-112.8,9.2-227.4,6.4-339.4-2.8-111.9,5.1-225.2,0-336.7-4.3-283.6-5.3-573.1-3.2-854.5.8-102.9,4.9-206.8,3.1-308.2-1.1-65.2-1.8-132.1-.4-197.9.6-26.1-1.2-51.9,6.1-77.1h-167.2c4.5,29.3,3.6,59.9,3.1,89.7-.7,44.8,2.2,95.4,0,138.3-3.6,67.4,1.2,129.5,2.9,197.9,1,39.9-7.6,67.9-9.2,100.6-.5,9.9,5.5,20,6.3,31.3,1.7,22.2.2,49.7,0,72.6-.2,28.2-2,54.8-5.4,82.3-4.2,34.2,2.1,84.9,2.4,121.7.4,43.2-2.9,86.3-3.3,129-.2,19.3,5.7,39.2,3.3,59.9-1.4,12.1-9.3,16-9.4,28.2,0,14,11.9,27,12.1,41.3.1,7.9-5.3,13.1-5.9,21.5-2,27.7-2.7,80,0,107.1,4.5,46.9,9.1,64.7,3.6,113.8-3.4,31.3.2,66.7-.5,99.8-3.1,144.5,3.7,294.1,3.3,440.1-.1,46.8,5.5,93.1-1,140.7-5.3,39.1,1,79,.9,120.4,0,18.7.4,37.8,0,56.6-.3,17.9-10,44.8-9,59.5,1.2,16.7,5.6,31.8,5.9,53.5.7,53.6-2.7,109.3-3.2,163.5-.2,18.4,5.6,45.4,3.4,63-1.7,13-12.5,13.7-12.4,25,0,8,10.8,20.5,12.3,34.6,4.3,41.9-8.8,100.3-3.2,144.8.7,5.8,5.6,4.1,6.2,6.6,8.9,42.1-4,87.4-5.7,128.5-1,23.2,6.2,57.5,5.5,84.3-1.4,55.8-2.9,113.5-3,170-.2,108.1,4.7,212.6,6.4,320.5.5,35.2-9.2,68-9.4,94.4,0,10.4,5.4,19.9,6.4,31.3,2.8,33.5,1.5,91.6,0,125.9-1.1,23.9-14.5,49-3.1,73.8h155.3c.8-18.2-1-36.9,0-55.1.4-7.9,5.6-12.9,6-18.9,1-15-5.7-43.1-6-59.4-2-119.2,8.8-240,6.2-358.3-1.9-90.3-2.1-178.5,5.5-267.7,3-35.3-4.9-71.4-5.9-106.6-3-102.1-2.3-206.3-2.6-307.9Z"/>
    <path class="st2" d="M5693.6-2441.6c-4-131.3,3.2-261.7,3.7-392.8.3-67-2.6-132,0-198,.9-22.7,2-60.3.2-81.9-.6-6.7-5.7-10.8-5.6-15.1,0-6.2,7.3-19,8.3-28.8,5.8-54.4,2.3-123.6,2.8-179.1,1.7-173.4,1.9-343.4-6-515.5-.7-14.9,2.1-33.5.4-47.5-.7-6-5.7-3-6.4-9-6.1-51.1,3.8-125.7,3.2-179.4-.2-21.4-7.5-45.1,0-67.6h-161.2c-5.5,24.2-1.9,49.3-2.9,74-6,159.8-2.1,320.4-.2,480.9.4,32,5.4,64.7,3.1,97.3-5,70.9-1,145.4.2,216.9,2.2,130-12.9,261.1-9.3,393.1,1.9,70.6,19.4,172.8,12.2,238.8-14.2,128.8-7.2,253.5-5.9,383.3,1.6,165.5.3,329.9,2.6,493.3,1.8,130.1-12.1,261.7-8.8,393.4,1.8,71,19.5,172.5,12.2,238.9-24.7,224.1,6.7,454.5-9.1,678.8l6,83.3h170.2c.5-34-.6-68.2-.1-102.3,1.6-119.1.3-235.7-5.8-355.1-4.3-85.2-5.8-169.9-6-254.6,0-11.5-1.5-27.3-.3-37.9.7-6,5.7-3,6.4-9,3-24.7-3.1-56.8-3.4-81.8-.7-66.1,4.9-132,3.3-198.3-1-40.4-1.9-62.8,0-103.5,2-43.7-.5-82.1,2.8-125.9,1.8-23-1.5-54.5-.2-78.6,12.3-236.6.9-475.5-6.3-710.4Z"/>
    <path class="st2" d="M4108.8-1605.5c2-71.8,5.8-145.5,6.1-217.1.9-183.3,10.2-385.6-6.4-568.4-9.8-108.6-2.3-223.5-3-333.2-.4-68.2,4.6-136,3.3-204.6-2.6-133,3.8-265.7,5.7-398.9,2-134.5,3.7-269.6.3-402.3-3.3-130.2-14.5-257.3-12.3-386.8.2-13.5,4.3-25.8,3.2-39.3h-152.3V-384.2h161.2c4.8-30.6-.1-61.5,0-92.7.6-119.8,3.6-243.9-3-364.6-6.1-111.2-8.9-202.4-2.8-314.2,1.8-33.7-7.3-72.8-3.4-104.1.8-6.1,6.1-4.2,6.4-6.4.4-3.4-6.5-41-6.1-56.2,2.6-94.9.5-188,3.1-283.1Z"/>
    <path class="st2" d="M5070.3-2007.9c-9.1-194.9-14.1-377.7-6.1-572,8.3-204.5-8.2-405.9-6.1-609.9.7-63.4,10.4-128,12.2-191.5,3.2-110.7-7.1-224.8-9.2-336.6-2.6-138.2-4.3-276.2,3-414.9.4-8,3.4-15.4,3.1-23.5h-167.2c2.2,13.5-3.3,26.5-3.2,39.3,0,7.4,3.3,14.4,3.4,21.9,1.1,247.8-10.9,496.5-9.2,745.2,1.1,162.1,11.9,325.2,12.4,487.1,0,19.5-4.7,29.2-10.2,43.1-2.3,5.7,3.6,74.1,4,88.9,2.3,98.6,1.7,199-.1,298.8-4.8,256.8-11,516.1-6,773.2,1.9,97.5,13.4,204.3,11.8,301.3-.4,20.4-11.5,42.1-11.7,57.1-.4,25.4,8.2,60.8,9,87.9,6.5,230.1-5.1,466.3-9,697.7-.7,43.5.8,87.1.1,130.6h179.2c-1.3-38.1,1.7-76.7.1-114.9-8.2-195-14.2-377.9-6.1-572,6.7-160.4,1-317.7-6.1-477.6-6.8-153.3,19.4-305.6,12.2-459.2Z"/>
    <path class="st2" d="M5381-1535.9c3.2-233.5-8.1-465.4-.6-698.1,5.6-172.6.9-345.7.1-518.5-.3-71.8-1.4-142.1.2-213.8,5.7-259.4-8-518.6-.2-776.5,3.8-125.8,4-241.3.3-367.9-.4-14.9-7.2-29.6-.1-45.4h-167.2c-3.5,25.1,4.9,49.7,6.1,73.7,7.5,155.7-8.4,316.9-12.2,471.5-8.6,346.7,1.3,691.5,12.2,1037.3,4.9,154.5-8,311.1-12.2,465.2-8.1,296.7-.5,593.7,6.2,889.6,2.3,102.9,7.7,205.2,6,308.3-2.6,159.1-17.4,320.4-17.4,480.8,0,13.6,4.8,30.8,2.4,45.6h176.2c-5.8-107-8.4-213.5,2.7-319.4,3.6-276.3-6.2-554.9-2.4-832.3Z"/>
    <path class="st2" d="M4750.1-3145.6c.2-27.3-5.2-63.4-5.5-94.4-1.3-160.7-4.9-322.7-1-484.5,2.5-102.8,0-199.2-2-301.4-.5-25.8-2.4-52.1-3-78.3-.4-17.8,1.2-34.6,3.1-52h-161.2V-384.2h167.2c-9.8-113.4-9.1-227.2-6.1-341.2,4.2-159.7-1.4-317.6,0-477.8,1.2-139.5-7-282.1,6.1-421.1,1-10.4.2-23.8,0-34.6-2.4-101.9-3.6-202.7-6.1-304.8-5.1-215.4,14.5-430.8-3-644.5-.4-5.3-2.8-4.4-2.9-4.7-.2-2.8-.4-6.9,0-9.4,9.5-59,6.3-120.5,6.1-180.9-.2-85.9-4-174.3-3.4-260.8.2-26.1,11.4-59.8,11.6-81.7Z"/>
    <path class="st2" d="M6309.1-1558.1c-.3-135.4-7.3-273.3,1.9-406,1.3-18.9-5.5-53.8-5.1-78.3,1.6-112.8,9.2-227.4,6.4-339.4-2.8-111.9,5.1-225.2,0-336.7-4.3-283.6-5.3-573.1-3.2-854.5.8-102.9,4.9-206.8,3.1-308.2-1.1-65.2-1.9-132.1-.4-197.9.6-26.1-1.2-51.9,6.1-77.1h-167.2c4.5,29.3,3.6,59.9,3.1,89.7-.7,44.8,2.2,95.4,0,138.3-3.6,67.4,1.2,129.5,2.9,197.9,1,39.9-7.6,67.9-9.2,100.6-.5,9.9,5.5,20,6.3,31.3,1.7,22.2.2,49.7,0,72.6-.2,28.2-2,54.8-5.4,82.3-4.2,34.2,2.1,84.9,2.4,121.7.4,43.2-2.9,86.3-3.3,129-.2,19.3,5.7,39.2,3.3,59.9-1.4,12.1-9.3,16-9.4,28.2,0,14,11.9,27,12.1,41.3.1,7.9-5.3,13.1-5.9,21.5-2,27.7-2.7,80,0,107.1,4.5,46.9,9.1,64.7,3.6,113.8-3.4,31.3.2,66.7-.5,99.8-3.1,144.5,3.7,294.1,3.3,440.1-.1,46.8,5.5,93.1-1,140.7-5.3,39.1,1,79,.9,120.4,0,18.7.4,37.8,0,56.6-.3,17.9-10,44.8-9,59.5,1.2,16.7,5.6,31.8,5.9,53.5.7,53.6-2.7,109.3-3.2,163.5-.2,18.4,5.6,45.4,3.4,63-1.7,13-12.5,13.7-12.4,25,0,8,10.8,20.5,12.3,34.6,4.3,41.9-8.8,100.3-3.2,144.8.7,5.8,5.6,4.1,6.2,6.6,8.9,42.1-4,87.4-5.7,128.5-1,23.2,6.2,57.5,5.5,84.3-1.4,55.8-2.9,113.5-3,170-.2,108.1,4.7,212.6,6.4,320.5.5,35.2-9.2,68-9.4,94.4,0,10.4,5.4,19.9,6.4,31.3,2.8,33.5,1.5,91.6,0,125.9-1.1,23.9-14.5,49-3.1,73.8h155.3c.8-18.2-1-36.9,0-55.1.4-7.9,5.6-12.9,6-18.9,1-15-5.7-43.1-6-59.4-2-119.2,8.8-240,6.2-358.3-1.9-90.3-2.1-178.5,5.5-267.7,3-35.3-4.9-71.4-5.9-106.6-3-102.1-2.3-206.3-2.6-307.9Z"/>
    <path class="st2" d="M7584-841.6c-4.3-85.2-5.8-169.9-6-254.6,0-11.5-1.5-27.3-.3-37.9.7-6,5.7-3,6.4-9,3-24.7-3.1-56.8-3.4-81.8-.7-66.1,4.9-132,3.3-198.3-1-40.4-1.9-62.8,0-103.5,2-43.7-.5-82.1,2.9-125.9,1.8-23-1.5-54.5-.2-78.5,12.3-236.6.9-475.5-6.3-710.4-4-131.3,3.2-261.7,3.7-392.8.3-67-2.6-132,0-198,.9-22.7,2-60.3.2-81.9-.6-6.7-5.7-10.8-5.6-15.1,0-6.2,7.3-19,8.3-28.8,5.8-54.4,2.3-123.6,2.8-179.1,1.7-173.4,1.9-343.4-6-515.5-.7-14.9,2.1-33.5.4-47.5-.7-6-5.7-3-6.4-9-6.1-51.1,3.8-125.7,3.2-179.4-.2-21.4-7.5-45.1,0-67.6h-161.2c-5.5,24.2-1.9,49.3-2.9,74-6,159.8-2.1,320.4-.2,480.9.4,32,5.4,64.7,3.1,97.3-5,70.9-1,145.4.2,216.9,2.2,130-12.9,261.1-9.3,393.1,1.9,70.6,19.4,172.8,12.2,238.8-14.2,128.8-7.2,253.5-5.9,383.3,1.6,165.5.3,329.9,2.6,493.3,1.8,130.1-12.1,261.7-8.8,393.4,1.8,71,19.5,172.5,12.2,238.9-24.7,224.1,6.7,454.5-9.1,678.8l6,83.3h170.2c.5-34-.6-68.2-.1-102.3,1.6-119.1.3-235.7-5.8-355.1Z"/>
    <path class="st2" d="M5995.6-1605.5c2-71.8,5.8-145.5,6.1-217.1.9-183.3,10.2-385.6-6.4-568.4-9.8-108.6-2.3-223.5-3-333.2-.4-68.2,4.6-136,3.3-204.6-2.6-133,3.8-265.7,5.7-398.9,2-134.5,3.7-269.6.3-402.3-3.3-130.2-14.5-257.3-12.3-386.8.2-13.5,4.3-25.8,3.2-39.3h-152.3V-384.2h161.2c4.8-30.6-.1-61.5,0-92.7.6-119.8,3.6-243.9-3-364.6-6.1-111.2-8.9-202.4-2.8-314.2,1.8-33.7-7.3-72.8-3.4-104.1.8-6.1,6.1-4.2,6.4-6.4.4-3.4-6.5-41-6.1-56.2,2.6-94.9.5-188,3.1-283.1Z"/>
    <path class="st2" d="M6957.1-2007.9c-9.1-194.9-14.1-377.7-6.1-572,8.3-204.5-8.2-405.9-6.1-609.9.7-63.4,10.4-128,12.2-191.5,3.2-110.7-7.1-224.8-9.2-336.6-2.6-138.2-4.3-276.2,3-414.9.4-8,3.4-15.4,3.1-23.5h-167.2c2.2,13.5-3.3,26.5-3.2,39.3,0,7.4,3.3,14.4,3.4,21.9,1.1,247.8-10.9,496.5-9.2,745.2,1.1,162.1,11.9,325.2,12.4,487.1,0,19.5-4.7,29.2-10.2,43.1-2.3,5.7,3.6,74.1,4,88.9,2.3,98.6,1.7,199-.1,298.8-4.8,256.8-11,516.1-6,773.2,1.9,97.5,13.4,204.3,11.8,301.3-.4,20.4-11.5,42.1-11.7,57.1-.4,25.4,8.2,60.8,9,87.9,6.5,230.1-5.1,466.3-9,697.7-.7,43.5.8,87.1.1,130.6h179.2c-1.3-38.1,1.7-76.7.1-114.9-8.2-195-14.2-377.9-6.1-572,6.7-160.4,1-317.7-6.1-477.6-6.8-153.3,19.4-305.6,12.2-459.2Z"/>
    <path class="st2" d="M7267.8-1535.9c3.2-233.5-8.1-465.4-.6-698.1,5.6-172.6.9-345.7.1-518.5-.3-71.8-1.4-142.1.2-213.8,5.7-259.4-8-518.6-.2-776.5,3.8-125.8,4-241.3.3-367.9-.4-14.9-7.2-29.6-.1-45.4h-167.2c-3.5,25.1,4.9,49.7,6.1,73.7,7.5,155.7-8.4,316.9-12.2,471.5-8.6,346.7,1.3,691.5,12.2,1037.3,4.9,154.5-8,311.1-12.2,465.2-8.1,296.7-.5,593.7,6.2,889.6,2.3,102.9,7.7,205.2,6,308.3-2.6,159.1-17.4,320.4-17.4,480.8,0,13.6,4.8,30.8,2.4,45.6h176.2c-5.8-107-8.4-213.5,2.7-319.4,3.6-276.3-6.2-554.9-2.4-832.3Z"/>
    <path class="st2" d="M6636.9-3145.6c.2-27.3-5.2-63.4-5.5-94.4-1.3-160.7-4.9-322.7-1-484.5,2.5-102.8,0-199.2-2-301.4-.5-25.8-2.4-52.1-3-78.3-.4-17.8,1.2-34.6,3.1-52h-161.2V-384.2h167.2c-9.8-113.4-9.1-227.2-6.1-341.2,4.2-159.7-1.4-317.6,0-477.8,1.2-139.5-7-282.1,6.1-421.1,1-10.4.2-23.8,0-34.6-2.4-101.9-3.6-202.7-6.1-304.8-5.1-215.4,14.5-430.8-3-644.5-.4-5.3-2.8-4.4-2.9-4.7-.2-2.8-.4-6.9,0-9.4,9.5-59,6.3-120.5,6.1-180.9-.2-85.9-4-174.3-3.4-260.8.2-26.1,11.4-59.8,11.6-81.7Z"/>
  </g>
  <g>
    <g>
      <rect class="st6" x=".4" y="-8197.6" width="3770.2" height="3770.2"/>
      <rect class="st6" y="-8197.5" width="3771" height="3769.9"/>
    </g>
    <path class="st1" d="M469.4-5601.4c-.3-135.4-7.3-273.3,1.9-406,1.3-18.9-5.5-53.8-5.1-78.3,1.6-112.8,9.2-227.4,6.4-339.4-2.8-111.9,5.1-225.2,0-336.7-4.3-283.6-5.3-573.1-3.2-854.5.8-102.9,4.9-206.8,3.1-308.2-1.1-65.2-1.8-132.1-.4-197.9.6-26.1-1.2-51.9,6.1-77.1h-167.2c4.5,29.3,3.6,59.9,3.1,89.7-.7,44.8,2.2,95.4,0,138.3-3.6,67.4,1.2,129.5,2.9,197.9,1,39.9-7.6,67.9-9.2,100.6-.5,9.9,5.5,20,6.3,31.3,1.7,22.2.2,49.7,0,72.6-.2,28.2-2,54.8-5.4,82.3-4.2,34.2,2.1,84.9,2.4,121.7.4,43.2-2.9,86.3-3.3,129-.2,19.3,5.7,39.2,3.3,59.9-1.4,12.1-9.3,16-9.4,28.2,0,14,11.9,27,12.1,41.3.1,7.9-5.3,13.1-5.9,21.5-2,27.7-2.7,80,0,107.1,4.5,46.9,9.1,64.7,3.6,113.8-3.4,31.3.2,66.7-.5,99.8-3.1,144.5,3.7,294.1,3.3,440.1-.1,46.8,5.5,93.1-1,140.7-5.3,39.1,1,79,.9,120.4,0,18.7.4,37.8,0,56.6-.3,17.9-10,44.8-9,59.5,1.2,16.7,5.6,31.8,5.9,53.5.7,53.6-2.7,109.3-3.2,163.5-.2,18.4,5.6,45.4,3.4,63-1.7,13-12.5,13.7-12.4,25,0,8,10.8,20.5,12.3,34.6,4.3,41.9-8.8,100.3-3.2,144.8.7,5.8,5.6,4.1,6.2,6.6,8.9,42.1-4,87.4-5.7,128.5-1,23.2,6.2,57.5,5.5,84.3-1.4,55.8-2.9,113.5-3,170-.2,108.1,4.7,212.6,6.4,320.5.5,35.2-9.2,68-9.4,94.4,0,10.4,5.4,19.9,6.4,31.3,2.8,33.5,1.5,91.6,0,125.9-1.1,23.9-14.5,49-3.1,73.8h155.3c.8-18.2-1-36.9,0-55.1.4-7.9,5.6-12.9,6-18.9,1-15-5.7-43.1-6-59.4-2-119.2,8.8-240,6.2-358.3-1.9-90.3-2.1-178.5,5.5-267.7,3-35.3-4.9-71.4-5.9-106.6-3-102.1-2.3-206.3-2.6-307.9Z"/>
    <path class="st1" d="M1740.6-6484.8c-4-131.3,3.2-261.7,3.7-392.8.3-67-2.6-132,0-198,.9-22.7,2-60.3.2-81.9-.6-6.7-5.7-10.8-5.6-15.1,0-6.2,7.3-19,8.3-28.8,5.8-54.4,2.3-123.6,2.8-179.1,1.7-173.4,1.9-343.4-6-515.5-.7-14.9,2.1-33.5.4-47.5-.7-6-5.7-3-6.4-9-6.1-51.1,3.8-125.7,3.2-179.4-.2-21.4-7.5-45.1,0-67.6h-161.2c-5.5,24.2-1.9,49.3-2.9,74-6,159.8-2.1,320.4-.2,480.9.4,32,5.4,64.7,3.1,97.3-5,70.9-1,145.4.2,216.9,2.2,130-12.9,261.1-9.3,393.1,1.9,70.6,19.4,172.8,12.2,238.8-14.2,128.8-7.2,253.5-5.9,383.3,1.6,165.5.3,329.9,2.6,493.3,1.8,130.1-12.1,261.7-8.8,393.4,1.8,71,19.5,172.5,12.2,238.9-24.7,224.1,6.7,454.5-9.1,678.8l6,83.3h170.2c.5-34-.6-68.2-.1-102.3,1.6-119.1.3-235.7-5.8-355.1-4.3-85.2-5.8-169.9-6-254.6,0-11.5-1.5-27.3-.3-37.9.7-6,5.7-3,6.4-9,3-24.7-3.1-56.8-3.4-81.8-.7-66.1,4.9-132,3.3-198.3-1-40.4-1.9-62.8,0-103.5,2-43.7-.5-82.1,2.8-125.9,1.8-23-1.5-54.5-.2-78.6,12.3-236.6.9-475.5-6.3-710.4Z"/>
    <path class="st1" d="M155.9-5648.8c2-71.8,5.8-145.5,6.1-217.1.9-183.3,10.2-385.6-6.4-568.4-9.8-108.6-2.3-223.5-3-333.2-.4-68.2,4.6-136,3.3-204.6-2.6-133,3.8-265.7,5.7-398.9,2-134.5,3.7-269.6.3-402.3-3.3-130.2-14.5-257.3-12.3-386.8.2-13.5,4.3-25.8,3.2-39.3H.5v3772h161.2c4.8-30.6-.1-61.5,0-92.7.6-119.8,3.6-243.9-3-364.6-6.1-111.2-8.9-202.4-2.8-314.2,1.8-33.7-7.3-72.8-3.4-104.1.8-6.1,6.1-4.2,6.4-6.4.4-3.4-6.5-41-6.1-56.2,2.6-94.9.5-188,3.1-283.1Z"/>
    <path class="st1" d="M1117.3-6051.2c-9.1-194.9-14.1-377.7-6.1-572,8.3-204.5-8.2-405.9-6.1-609.9.7-63.4,10.4-128,12.2-191.5,3.2-110.7-7.1-224.8-9.2-336.6-2.6-138.2-4.3-276.2,3-414.9.4-8,3.4-15.4,3.1-23.5h-167.2c2.2,13.5-3.3,26.5-3.2,39.3,0,7.4,3.3,14.4,3.4,21.9,1.1,247.8-10.9,496.5-9.2,745.2,1.1,162.1,11.9,325.2,12.4,487.1,0,19.5-4.7,29.2-10.2,43.1-2.3,5.7,3.6,74.1,4,88.9,2.3,98.6,1.7,199-.1,298.8-4.8,256.8-11,516.1-6,773.2,1.9,97.5,13.4,204.3,11.8,301.3-.4,20.4-11.5,42.1-11.7,57.1-.4,25.4,8.2,60.8,9,87.9,6.5,230.1-5.1,466.3-9,697.7-.7,43.5.8,87.1.1,130.6h179.2c-1.3-38.1,1.7-76.7.1-114.9-8.2-195-14.2-377.9-6.1-572,6.7-160.4,1-317.7-6.1-477.6-6.8-153.3,19.4-305.6,12.2-459.2Z"/>
    <path class="st1" d="M1428-5579.2c3.2-233.5-8.1-465.4-.6-698.1,5.6-172.6.9-345.7.1-518.5-.3-71.8-1.4-142.1.2-213.8,5.7-259.4-8-518.6-.2-776.5,3.8-125.8,4-241.3.3-367.9-.4-14.9-7.2-29.6-.1-45.4h-167.2c-3.5,25.1,4.9,49.7,6.1,73.7,7.5,155.7-8.4,316.9-12.2,471.5-8.6,346.7,1.3,691.5,12.2,1037.3,4.9,154.5-8,311.1-12.2,465.2-8.1,296.7-.5,593.7,6.2,889.6,2.3,102.9,7.7,205.2,6,308.3-2.6,159.1-17.4,320.4-17.4,480.8,0,13.6,4.8,30.8,2.4,45.6h176.2c-5.8-107-8.4-213.5,2.7-319.4,3.6-276.3-6.2-554.9-2.4-832.3Z"/>
    <path class="st1" d="M797.2-7188.9c.2-27.3-5.2-63.4-5.5-94.4-1.3-160.7-4.9-322.7-1-484.5,2.5-102.8,0-199.2-2-301.4-.5-25.8-2.4-52.1-3-78.3-.4-17.8,1.2-34.6,3.1-52h-161.2v3772h167.2c-9.8-113.4-9.1-227.2-6.1-341.2,4.2-159.7-1.4-317.6,0-477.8,1.2-139.5-7-282.1,6.1-421.1,1-10.4.2-23.8,0-34.6-2.4-101.9-3.6-202.7-6.1-304.8-5.1-215.4,14.5-430.8-3-644.5-.4-5.3-2.8-4.4-2.9-4.7-.2-2.8-.4-6.9,0-9.4,9.5-59,6.3-120.5,6.1-180.9-.2-85.9-4-174.3-3.4-260.8.2-26.1,11.4-59.8,11.6-81.7Z"/>
    <path class="st1" d="M2356.2-5601.4c-.3-135.4-7.3-273.3,1.9-406,1.3-18.9-5.5-53.8-5.1-78.3,1.6-112.8,9.2-227.4,6.4-339.4-2.8-111.9,5.1-225.2,0-336.7-4.3-283.6-5.3-573.1-3.2-854.5.8-102.9,4.9-206.8,3.1-308.2-1.1-65.2-1.9-132.1-.4-197.9.6-26.1-1.2-51.9,6.1-77.1h-167.2c4.5,29.3,3.6,59.9,3.1,89.7-.7,44.8,2.2,95.4,0,138.3-3.6,67.4,1.2,129.5,2.9,197.9,1,39.9-7.6,67.9-9.2,100.6-.5,9.9,5.5,20,6.3,31.3,1.7,22.2.2,49.7,0,72.6-.2,28.2-2,54.8-5.4,82.3-4.2,34.2,2.1,84.9,2.4,121.7.4,43.2-2.9,86.3-3.3,129-.2,19.3,5.7,39.2,3.3,59.9-1.4,12.1-9.3,16-9.4,28.2,0,14,11.9,27,12.1,41.3.1,7.9-5.3,13.1-5.9,21.5-2,27.7-2.7,80,0,107.1,4.5,46.9,9.1,64.7,3.6,113.8-3.4,31.3.2,66.7-.5,99.8-3.1,144.5,3.7,294.1,3.3,440.1-.1,46.8,5.5,93.1-1,140.7-5.3,39.1,1,79,.9,120.4,0,18.7.4,37.8,0,56.6-.3,17.9-10,44.8-9,59.5,1.2,16.7,5.6,31.8,5.9,53.5.7,53.6-2.7,109.3-3.2,163.5-.2,18.4,5.6,45.4,3.4,63-1.7,13-12.5,13.7-12.4,25,0,8,10.8,20.5,12.3,34.6,4.3,41.9-8.8,100.3-3.2,144.8.7,5.8,5.6,4.1,6.2,6.6,8.9,42.1-4,87.4-5.7,128.5-1,23.2,6.2,57.5,5.5,84.3-1.4,55.8-2.9,113.5-3,170-.2,108.1,4.7,212.6,6.4,320.5.5,35.2-9.2,68-9.4,94.4,0,10.4,5.4,19.9,6.4,31.3,2.8,33.5,1.5,91.6,0,125.9-1.1,23.9-14.5,49-3.1,73.8h155.3c.8-18.2-1-36.9,0-55.1.4-7.9,5.6-12.9,6-18.9,1-15-5.7-43.1-6-59.4-2-119.2,8.8-240,6.2-358.3-1.9-90.3-2.1-178.5,5.5-267.7,3-35.3-4.9-71.4-5.9-106.6-3-102.1-2.3-206.3-2.6-307.9Z"/>
    <path class="st1" d="M3631-4884.9c-4.3-85.2-5.8-169.9-6-254.6,0-11.5-1.5-27.3-.3-37.9.7-6,5.7-3,6.4-9,3-24.7-3.1-56.8-3.4-81.8-.7-66.1,4.9-132,3.3-198.3-1-40.4-1.9-62.8,0-103.5,2-43.7-.5-82.1,2.9-125.9,1.8-23-1.5-54.5-.2-78.5,12.3-236.6.9-475.5-6.3-710.4-4-131.3,3.2-261.7,3.7-392.8.3-67-2.6-132,0-198,.9-22.7,2-60.3.2-81.9-.6-6.7-5.7-10.8-5.6-15.1,0-6.2,7.3-19,8.3-28.8,5.8-54.4,2.3-123.6,2.8-179.1,1.7-173.4,1.9-343.4-6-515.5-.7-14.9,2.1-33.5.4-47.5-.7-6-5.7-3-6.4-9-6.1-51.1,3.8-125.7,3.2-179.4-.2-21.4-7.5-45.1,0-67.6h-161.2c-5.5,24.2-1.9,49.3-2.9,74-6,159.8-2.1,320.4-.2,480.9.4,32,5.4,64.7,3.1,97.3-5,70.9-1,145.4.2,216.9,2.2,130-12.9,261.1-9.3,393.1,1.9,70.6,19.4,172.8,12.2,238.8-14.2,128.8-7.2,253.5-5.9,383.3,1.6,165.5.3,329.9,2.6,493.3,1.8,130.1-12.1,261.7-8.8,393.4,1.8,71,19.5,172.5,12.2,238.9-24.7,224.1,6.7,454.5-9.1,678.8l6,83.3h170.2c.5-34-.6-68.2-.1-102.3,1.6-119.1.3-235.7-5.8-355.1Z"/>
    <path class="st1" d="M2042.7-5648.8c2-71.8,5.8-145.5,6.1-217.1.9-183.3,10.2-385.6-6.4-568.4-9.8-108.6-2.3-223.5-3-333.2-.4-68.2,4.6-136,3.3-204.6-2.6-133,3.8-265.7,5.7-398.9,2-134.5,3.7-269.6.3-402.3-3.3-130.2-14.5-257.3-12.3-386.8.2-13.5,4.3-25.8,3.2-39.3h-152.3v3772h161.2c4.8-30.6-.1-61.5,0-92.7.6-119.8,3.6-243.9-3-364.6-6.1-111.2-8.9-202.4-2.8-314.2,1.8-33.7-7.3-72.8-3.4-104.1.8-6.1,6.1-4.2,6.4-6.4.4-3.4-6.5-41-6.1-56.2,2.6-94.9.5-188,3.1-283.1Z"/>
    <path class="st1" d="M3004.1-6051.2c-9.1-194.9-14.1-377.7-6.1-572,8.3-204.5-8.2-405.9-6.1-609.9.7-63.4,10.4-128,12.2-191.5,3.2-110.7-7.1-224.8-9.2-336.6-2.6-138.2-4.3-276.2,3-414.9.4-8,3.4-15.4,3.1-23.5h-167.2c2.2,13.5-3.3,26.5-3.2,39.3,0,7.4,3.3,14.4,3.4,21.9,1.1,247.8-10.9,496.5-9.2,745.2,1.1,162.1,11.9,325.2,12.4,487.1,0,19.5-4.7,29.2-10.2,43.1-2.3,5.7,3.6,74.1,4,88.9,2.3,98.6,1.7,199-.1,298.8-4.8,256.8-11,516.1-6,773.2,1.9,97.5,13.4,204.3,11.8,301.3-.4,20.4-11.5,42.1-11.7,57.1-.4,25.4,8.2,60.8,9,87.9,6.5,230.1-5.1,466.3-9,697.7-.7,43.5.8,87.1.1,130.6h179.2c-1.3-38.1,1.7-76.7.1-114.9-8.2-195-14.2-377.9-6.1-572,6.7-160.4,1-317.7-6.1-477.6-6.8-153.3,19.4-305.6,12.2-459.2Z"/>
    <path class="st1" d="M3314.8-5579.2c3.2-233.5-8.1-465.4-.6-698.1,5.6-172.6.9-345.7.1-518.5-.3-71.8-1.4-142.1.2-213.8,5.7-259.4-8-518.6-.2-776.5,3.8-125.8,4-241.3.3-367.9-.4-14.9-7.2-29.6-.1-45.4h-167.2c-3.5,25.1,4.9,49.7,6.1,73.7,7.5,155.7-8.4,316.9-12.2,471.5-8.6,346.7,1.3,691.5,12.2,1037.3,4.9,154.5-8,311.1-12.2,465.2-8.1,296.7-.5,593.7,6.2,889.6,2.3,102.9,7.7,205.2,6,308.3-2.6,159.1-17.4,320.4-17.4,480.8,0,13.6,4.8,30.8,2.4,45.6h176.2c-5.8-107-8.4-213.5,2.7-319.4,3.6-276.3-6.2-554.9-2.4-832.3Z"/>
    <path class="st1" d="M2683.9-7188.9c.2-27.3-5.2-63.4-5.5-94.4-1.3-160.7-4.9-322.7-1-484.5,2.5-102.8,0-199.2-2-301.4-.5-25.8-2.4-52.1-3-78.3-.4-17.8,1.2-34.6,3.1-52h-161.2v3772h167.2c-9.8-113.4-9.1-227.2-6.1-341.2,4.2-159.7-1.4-317.6,0-477.8,1.2-139.5-7-282.1,6.1-421.1,1-10.4.2-23.8,0-34.6-2.4-101.9-3.6-202.7-6.1-304.8-5.1-215.4,14.5-430.8-3-644.5-.4-5.3-2.8-4.4-2.9-4.7-.2-2.8-.4-6.9,0-9.4,9.5-59,6.3-120.5,6.1-180.9-.2-85.9-4-174.3-3.4-260.8.2-26.1,11.4-59.8,11.6-81.7Z"/>
  </g>
  <g>
    <g>
      <rect class="st0" x="3953.3" y="-8197.6" width="3770.2" height="3770.2"/>
      <rect class="st0" x="3952.9" y="-8197.5" width="3771" height="3769.9"/>
    </g>
    <path class="st3" d="M4422.3-5601.4c-.3-135.4-7.3-273.3,1.9-406,1.3-18.9-5.5-53.8-5.1-78.3,1.6-112.8,9.2-227.4,6.4-339.4-2.8-111.9,5.1-225.2,0-336.7-4.3-283.6-5.3-573.1-3.2-854.5.8-102.9,4.9-206.8,3.1-308.2-1.1-65.2-1.8-132.1-.4-197.9.6-26.1-1.2-51.9,6.1-77.1h-167.2c4.5,29.3,3.6,59.9,3.1,89.7-.7,44.8,2.2,95.4,0,138.3-3.6,67.4,1.2,129.5,2.9,197.9,1,39.9-7.6,67.9-9.2,100.6-.5,9.9,5.5,20,6.3,31.3,1.7,22.2.2,49.7,0,72.6-.2,28.2-2,54.8-5.4,82.3-4.2,34.2,2.1,84.9,2.4,121.7.4,43.2-2.9,86.3-3.3,129-.2,19.3,5.7,39.2,3.3,59.9-1.4,12.1-9.3,16-9.4,28.2,0,14,11.9,27,12.1,41.3.1,7.9-5.3,13.1-5.9,21.5-2,27.7-2.7,80,0,107.1,4.5,46.9,9.1,64.7,3.6,113.8-3.4,31.3.2,66.7-.5,99.8-3.1,144.5,3.7,294.1,3.3,440.1-.1,46.8,5.5,93.1-1,140.7-5.3,39.1,1,79,.9,120.4,0,18.7.4,37.8,0,56.6-.3,17.9-10,44.8-9,59.5,1.2,16.7,5.6,31.8,5.9,53.5.7,53.6-2.7,109.3-3.2,163.5-.2,18.4,5.6,45.4,3.4,63-1.7,13-12.5,13.7-12.4,25,0,8,10.8,20.5,12.3,34.6,4.3,41.9-8.8,100.3-3.2,144.8.7,5.8,5.6,4.1,6.2,6.6,8.9,42.1-4,87.4-5.7,128.5-1,23.2,6.2,57.5,5.5,84.3-1.4,55.8-2.9,113.5-3,170-.2,108.1,4.7,212.6,6.4,320.5.5,35.2-9.2,68-9.4,94.4,0,10.4,5.4,19.9,6.4,31.3,2.8,33.5,1.5,91.6,0,125.9-1.1,23.9-14.5,49-3.1,73.8h155.3c.8-18.2-1-36.9,0-55.1.4-7.9,5.6-12.9,6-18.9,1-15-5.7-43.1-6-59.4-2-119.2,8.8-240,6.2-358.3-1.9-90.3-2.1-178.5,5.5-267.7,3-35.3-4.9-71.4-5.9-106.6-3-102.1-2.3-206.3-2.6-307.9Z"/>
    <path class="st3" d="M5693.6-6484.8c-4-131.3,3.2-261.7,3.7-392.8.3-67-2.6-132,0-198,.9-22.7,2-60.3.2-81.9-.6-6.7-5.7-10.8-5.6-15.1,0-6.2,7.3-19,8.3-28.8,5.8-54.4,2.3-123.6,2.8-179.1,1.7-173.4,1.9-343.4-6-515.5-.7-14.9,2.1-33.5.4-47.5-.7-6-5.7-3-6.4-9-6.1-51.1,3.8-125.7,3.2-179.4-.2-21.4-7.5-45.1,0-67.6h-161.2c-5.5,24.2-1.9,49.3-2.9,74-6,159.8-2.1,320.4-.2,480.9.4,32,5.4,64.7,3.1,97.3-5,70.9-1,145.4.2,216.9,2.2,130-12.9,261.1-9.3,393.1,1.9,70.6,19.4,172.8,12.2,238.8-14.2,128.8-7.2,253.5-5.9,383.3,1.6,165.5.3,329.9,2.6,493.3,1.8,130.1-12.1,261.7-8.8,393.4,1.8,71,19.5,172.5,12.2,238.9-24.7,224.1,6.7,454.5-9.1,678.8l6,83.3h170.2c.5-34-.6-68.2-.1-102.3,1.6-119.1.3-235.7-5.8-355.1-4.3-85.2-5.8-169.9-6-254.6,0-11.5-1.5-27.3-.3-37.9.7-6,5.7-3,6.4-9,3-24.7-3.1-56.8-3.4-81.8-.7-66.1,4.9-132,3.3-198.3-1-40.4-1.9-62.8,0-103.5,2-43.7-.5-82.1,2.8-125.9,1.8-23-1.5-54.5-.2-78.6,12.3-236.6.9-475.5-6.3-710.4Z"/>
    <path class="st3" d="M4108.8-5648.8c2-71.8,5.8-145.5,6.1-217.1.9-183.3,10.2-385.6-6.4-568.4-9.8-108.6-2.3-223.5-3-333.2-.4-68.2,4.6-136,3.3-204.6-2.6-133,3.8-265.7,5.7-398.9,2-134.5,3.7-269.6.3-402.3-3.3-130.2-14.5-257.3-12.3-386.8.2-13.5,4.3-25.8,3.2-39.3h-152.3v3772h161.2c4.8-30.6-.1-61.5,0-92.7.6-119.8,3.6-243.9-3-364.6-6.1-111.2-8.9-202.4-2.8-314.2,1.8-33.7-7.3-72.8-3.4-104.1.8-6.1,6.1-4.2,6.4-6.4.4-3.4-6.5-41-6.1-56.2,2.6-94.9.5-188,3.1-283.1Z"/>
    <path class="st3" d="M5070.3-6051.2c-9.1-194.9-14.1-377.7-6.1-572,8.3-204.5-8.2-405.9-6.1-609.9.7-63.4,10.4-128,12.2-191.5,3.2-110.7-7.1-224.8-9.2-336.6-2.6-138.2-4.3-276.2,3-414.9.4-8,3.4-15.4,3.1-23.5h-167.2c2.2,13.5-3.3,26.5-3.2,39.3,0,7.4,3.3,14.4,3.4,21.9,1.1,247.8-10.9,496.5-9.2,745.2,1.1,162.1,11.9,325.2,12.4,487.1,0,19.5-4.7,29.2-10.2,43.1-2.3,5.7,3.6,74.1,4,88.9,2.3,98.6,1.7,199-.1,298.8-4.8,256.8-11,516.1-6,773.2,1.9,97.5,13.4,204.3,11.8,301.3-.4,20.4-11.5,42.1-11.7,57.1-.4,25.4,8.2,60.8,9,87.9,6.5,230.1-5.1,466.3-9,697.7-.7,43.5.8,87.1.1,130.6h179.2c-1.3-38.1,1.7-76.7.1-114.9-8.2-195-14.2-377.9-6.1-572,6.7-160.4,1-317.7-6.1-477.6-6.8-153.3,19.4-305.6,12.2-459.2Z"/>
    <path class="st3" d="M5381-5579.2c3.2-233.5-8.1-465.4-.6-698.1,5.6-172.6.9-345.7.1-518.5-.3-71.8-1.4-142.1.2-213.8,5.7-259.4-8-518.6-.2-776.5,3.8-125.8,4-241.3.3-367.9-.4-14.9-7.2-29.6-.1-45.4h-167.2c-3.5,25.1,4.9,49.7,6.1,73.7,7.5,155.7-8.4,316.9-12.2,471.5-8.6,346.7,1.3,691.5,12.2,1037.3,4.9,154.5-8,311.1-12.2,465.2-8.1,296.7-.5,593.7,6.2,889.6,2.3,102.9,7.7,205.2,6,308.3-2.6,159.1-17.4,320.4-17.4,480.8,0,13.6,4.8,30.8,2.4,45.6h176.2c-5.8-107-8.4-213.5,2.7-319.4,3.6-276.3-6.2-554.9-2.4-832.3Z"/>
    <path class="st3" d="M4750.1-7188.9c.2-27.3-5.2-63.4-5.5-94.4-1.3-160.7-4.9-322.7-1-484.5,2.5-102.8,0-199.2-2-301.4-.5-25.8-2.4-52.1-3-78.3-.4-17.8,1.2-34.6,3.1-52h-161.2v3772h167.2c-9.8-113.4-9.1-227.2-6.1-341.2,4.2-159.7-1.4-317.6,0-477.8,1.2-139.5-7-282.1,6.1-421.1,1-10.4.2-23.8,0-34.6-2.4-101.9-3.6-202.7-6.1-304.8-5.1-215.4,14.5-430.8-3-644.5-.4-5.3-2.8-4.4-2.9-4.7-.2-2.8-.4-6.9,0-9.4,9.5-59,6.3-120.5,6.1-180.9-.2-85.9-4-174.3-3.4-260.8.2-26.1,11.4-59.8,11.6-81.7Z"/>
    <path class="st3" d="M6309.1-5601.4c-.3-135.4-7.3-273.3,1.9-406,1.3-18.9-5.5-53.8-5.1-78.3,1.6-112.8,9.2-227.4,6.4-339.4-2.8-111.9,5.1-225.2,0-336.7-4.3-283.6-5.3-573.1-3.2-854.5.8-102.9,4.9-206.8,3.1-308.2-1.1-65.2-1.9-132.1-.4-197.9.6-26.1-1.2-51.9,6.1-77.1h-167.2c4.5,29.3,3.6,59.9,3.1,89.7-.7,44.8,2.2,95.4,0,138.3-3.6,67.4,1.2,129.5,2.9,197.9,1,39.9-7.6,67.9-9.2,100.6-.5,9.9,5.5,20,6.3,31.3,1.7,22.2.2,49.7,0,72.6-.2,28.2-2,54.8-5.4,82.3-4.2,34.2,2.1,84.9,2.4,121.7.4,43.2-2.9,86.3-3.3,129-.2,19.3,5.7,39.2,3.3,59.9-1.4,12.1-9.3,16-9.4,28.2,0,14,11.9,27,12.1,41.3.1,7.9-5.3,13.1-5.9,21.5-2,27.7-2.7,80,0,107.1,4.5,46.9,9.1,64.7,3.6,113.8-3.4,31.3.2,66.7-.5,99.8-3.1,144.5,3.7,294.1,3.3,440.1-.1,46.8,5.5,93.1-1,140.7-5.3,39.1,1,79,.9,120.4,0,18.7.4,37.8,0,56.6-.3,17.9-10,44.8-9,59.5,1.2,16.7,5.6,31.8,5.9,53.5.7,53.6-2.7,109.3-3.2,163.5-.2,18.4,5.6,45.4,3.4,63-1.7,13-12.5,13.7-12.4,25,0,8,10.8,20.5,12.3,34.6,4.3,41.9-8.8,100.3-3.2,144.8.7,5.8,5.6,4.1,6.2,6.6,8.9,42.1-4,87.4-5.7,128.5-1,23.2,6.2,57.5,5.5,84.3-1.4,55.8-2.9,113.5-3,170-.2,108.1,4.7,212.6,6.4,320.5.5,35.2-9.2,68-9.4,94.4,0,10.4,5.4,19.9,6.4,31.3,2.8,33.5,1.5,91.6,0,125.9-1.1,23.9-14.5,49-3.1,73.8h155.3c.8-18.2-1-36.9,0-55.1.4-7.9,5.6-12.9,6-18.9,1-15-5.7-43.1-6-59.4-2-119.2,8.8-240,6.2-358.3-1.9-90.3-2.1-178.5,5.5-267.7,3-35.3-4.9-71.4-5.9-106.6-3-102.1-2.3-206.3-2.6-307.9Z"/>
    <path class="st3" d="M7584-4884.9c-4.3-85.2-5.8-169.9-6-254.6,0-11.5-1.5-27.3-.3-37.9.7-6,5.7-3,6.4-9,3-24.7-3.1-56.8-3.4-81.8-.7-66.1,4.9-132,3.3-198.3-1-40.4-1.9-62.8,0-103.5,2-43.7-.5-82.1,2.9-125.9,1.8-23-1.5-54.5-.2-78.5,12.3-236.6.9-475.5-6.3-710.4-4-131.3,3.2-261.7,3.7-392.8.3-67-2.6-132,0-198,.9-22.7,2-60.3.2-81.9-.6-6.7-5.7-10.8-5.6-15.1,0-6.2,7.3-19,8.3-28.8,5.8-54.4,2.3-123.6,2.8-179.1,1.7-173.4,1.9-343.4-6-515.5-.7-14.9,2.1-33.5.4-47.5-.7-6-5.7-3-6.4-9-6.1-51.1,3.8-125.7,3.2-179.4-.2-21.4-7.5-45.1,0-67.6h-161.2c-5.5,24.2-1.9,49.3-2.9,74-6,159.8-2.1,320.4-.2,480.9.4,32,5.4,64.7,3.1,97.3-5,70.9-1,145.4.2,216.9,2.2,130-12.9,261.1-9.3,393.1,1.9,70.6,19.4,172.8,12.2,238.8-14.2,128.8-7.2,253.5-5.9,383.3,1.6,165.5.3,329.9,2.6,493.3,1.8,130.1-12.1,261.7-8.8,393.4,1.8,71,19.5,172.5,12.2,238.9-24.7,224.1,6.7,454.5-9.1,678.8l6,83.3h170.2c.5-34-.6-68.2-.1-102.3,1.6-119.1.3-235.7-5.8-355.1Z"/>
    <path class="st3" d="M5995.6-5648.8c2-71.8,5.8-145.5,6.1-217.1.9-183.3,10.2-385.6-6.4-568.4-9.8-108.6-2.3-223.5-3-333.2-.4-68.2,4.6-136,3.3-204.6-2.6-133,3.8-265.7,5.7-398.9,2-134.5,3.7-269.6.3-402.3-3.3-130.2-14.5-257.3-12.3-386.8.2-13.5,4.3-25.8,3.2-39.3h-152.3v3772h161.2c4.8-30.6-.1-61.5,0-92.7.6-119.8,3.6-243.9-3-364.6-6.1-111.2-8.9-202.4-2.8-314.2,1.8-33.7-7.3-72.8-3.4-104.1.8-6.1,6.1-4.2,6.4-6.4.4-3.4-6.5-41-6.1-56.2,2.6-94.9.5-188,3.1-283.1Z"/>
    <path class="st3" d="M6957.1-6051.2c-9.1-194.9-14.1-377.7-6.1-572,8.3-204.5-8.2-405.9-6.1-609.9.7-63.4,10.4-128,12.2-191.5,3.2-110.7-7.1-224.8-9.2-336.6-2.6-138.2-4.3-276.2,3-414.9.4-8,3.4-15.4,3.1-23.5h-167.2c2.2,13.5-3.3,26.5-3.2,39.3,0,7.4,3.3,14.4,3.4,21.9,1.1,247.8-10.9,496.5-9.2,745.2,1.1,162.1,11.9,325.2,12.4,487.1,0,19.5-4.7,29.2-10.2,43.1-2.3,5.7,3.6,74.1,4,88.9,2.3,98.6,1.7,199-.1,298.8-4.8,256.8-11,516.1-6,773.2,1.9,97.5,13.4,204.3,11.8,301.3-.4,20.4-11.5,42.1-11.7,57.1-.4,25.4,8.2,60.8,9,87.9,6.5,230.1-5.1,466.3-9,697.7-.7,43.5.8,87.1.1,130.6h179.2c-1.3-38.1,1.7-76.7.1-114.9-8.2-195-14.2-377.9-6.1-572,6.7-160.4,1-317.7-6.1-477.6-6.8-153.3,19.4-305.6,12.2-459.2Z"/>
    <path class="st3" d="M7267.8-5579.2c3.2-233.5-8.1-465.4-.6-698.1,5.6-172.6.9-345.7.1-518.5-.3-71.8-1.4-142.1.2-213.8,5.7-259.4-8-518.6-.2-776.5,3.8-125.8,4-241.3.3-367.9-.4-14.9-7.2-29.6-.1-45.4h-167.2c-3.5,25.1,4.9,49.7,6.1,73.7,7.5,155.7-8.4,316.9-12.2,471.5-8.6,346.7,1.3,691.5,12.2,1037.3,4.9,154.5-8,311.1-12.2,465.2-8.1,296.7-.5,593.7,6.2,889.6,2.3,102.9,7.7,205.2,6,308.3-2.6,159.1-17.4,320.4-17.4,480.8,0,13.6,4.8,30.8,2.4,45.6h176.2c-5.8-107-8.4-213.5,2.7-319.4,3.6-276.3-6.2-554.9-2.4-832.3Z"/>
    <path class="st3" d="M6636.9-7188.9c.2-27.3-5.2-63.4-5.5-94.4-1.3-160.7-4.9-322.7-1-484.5,2.5-102.8,0-199.2-2-301.4-.5-25.8-2.4-52.1-3-78.3-.4-17.8,1.2-34.6,3.1-52h-161.2v3772h167.2c-9.8-113.4-9.1-227.2-6.1-341.2,4.2-159.7-1.4-317.6,0-477.8,1.2-139.5-7-282.1,6.1-421.1,1-10.4.2-23.8,0-34.6-2.4-101.9-3.6-202.7-6.1-304.8-5.1-215.4,14.5-430.8-3-644.5-.4-5.3-2.8-4.4-2.9-4.7-.2-2.8-.4-6.9,0-9.4,9.5-59,6.3-120.5,6.1-180.9-.2-85.9-4-174.3-3.4-260.8.2-26.1,11.4-59.8,11.6-81.7Z"/>
  </g>
</svg>